<svg xmlns="http://www.w3.org/2000/svg" xmlns:xlink="http://www.w3.org/1999/xlink" viewBox="0 0 33.161 40">
  <defs>
    <style>
      .cls-1 {
        fill: #23232f;
      }

      .cls-2 {
        clip-path: url(#clip-path);
      }
    </style>
    <clipPath id="clip-path">
      <path id="Path_609" data-name="Path 609" class="cls-1" d="M0,16.17H40V-16.992H0Z" transform="translate(0 16.992)"/>
    </clipPath>
  </defs>
  <g id="Group_2175" data-name="Group 2175" transform="translate(16.992 40) rotate(-90)">
    <g id="Group_2174" data-name="Group 2174" class="cls-2" transform="translate(0 -16.992)">
      <g id="Group_2173" data-name="Group 2173" transform="translate(0 0)">
        <path id="Path_608" data-name="Path 608" class="cls-1" d="M19.5,11.355a4.661,4.661,0,1,0-9.321,0,4.661,4.661,0,0,0,9.321,0m0-13.443A4.7,4.7,0,0,0,14.82-6.772a4.658,4.658,0,0,0-4.637,4.684A4.571,4.571,0,0,0,14.82,2.6,4.609,4.609,0,0,0,19.5-2.088M4.8,21.23V-11.932H-7.615C-14.266-11.979-20.5-8.653-20.5-1.018V10.129c0,7.728,6.23,11.1,12.881,11.1ZM-3.634-4.063V13.408H-7.9c-2.81,0-4.169-1.358-4.169-3.513V-.456c0-2.155,1.311-3.607,4.169-3.607Z" transform="translate(20.496 11.932)"/>
      </g>
    </g>
  </g>
</svg>
