<svg xmlns="http://www.w3.org/2000/svg" viewBox="0 0 1920.002 1079.998">
  <defs>
    <style>
      .cls-1 {
        fill: #fff;
      }

      .cls-2 {
        fill: #23232f;
      }
    </style>
  </defs>
  <g id="Group_2178" data-name="Group 2178" transform="translate(0.002 -0.001)">
    <path id="Subtraction_1" data-name="Subtraction 1" class="cls-1" d="M18136-1300H16216V-2380h1920Zm-865.533-547.892h0l24.66,34.55h30.99l-38.109-49.976,38.242-46.68h-30.459l-26.111,35.734,0-35.734h-24.531l0,96.656h24.527l0-33.495.785-1.055ZM17177.24-1862l0,0,27.816,48.657h24.662V-1910h-24.264l0,51.956L17175.924-1910h-23.215l0,96.656h24.531l0-48.657Zm-64.221-48v96.656h24.4l0-96.656Zm-50.635,96.524.193,0h.006l.191,0a50.874,50.874,0,0,0,13.926-1.855,36.162,36.162,0,0,0,11.883-5.737,27.584,27.584,0,0,0,8.277-9.887,32.026,32.026,0,0,0,3.107-14.3v-32.439a32.55,32.55,0,0,0-3.15-14.507,28.073,28.073,0,0,0-8.375-10.054,36.583,36.583,0,0,0-12.01-5.851,50.774,50.774,0,0,0-14.049-1.895h-36.135v96.525Zm.791-22.812h0v-.131h-12.4l0-50.9h12.4c7.824,0,12.133,3.653,12.133,10.286v30.195a9.948,9.948,0,0,1-2.953,7.649C17070.275-1837.262,17067.188-1836.286,17063.176-1836.286Z" transform="translate(-16216 2380)"/>
    <g id="Group_1040" data-name="Group 1040" transform="translate(867.612 615.154)">
      <path id="Path_433" data-name="Path 433" class="cls-2" d="M49.3,95.414c-2.11,0-4.088,1.055-4.088,3.3h0v5.934h0c0,2.242,2.11,3.3,4.088,3.3,1.846,0,3.56-.791,4.088-2.374l1.451.791c-.791,2.242-3.165,3.3-5.538,3.3-2.9,0-5.8-1.582-5.8-5.011V98.711c0-3.3,2.9-5.011,5.8-5.011a6.155,6.155,0,0,1,5.275,2.637l-1.451.923A4.074,4.074,0,0,0,49.3,95.414Z" transform="translate(-43.5 -88.293)"/>
      <path id="Path_434" data-name="Path 434" class="cls-2" d="M61.025,93.924v1.714a5.663,5.663,0,0,0-2.11,0c-1.582.4-2.9,1.451-2.9,3.165v10.549H54.3V98.8c0-2.637,1.978-4.352,4.352-4.879A7.158,7.158,0,0,1,61.025,93.924Z" transform="translate(-40.058 -88.254)"/>
      <path id="Path_435" data-name="Path 435" class="cls-2" d="M62.714,104.809c0,2.242,2.11,3.3,4.088,3.3A4.229,4.229,0,0,0,70.758,106l1.451.791c-.923,1.978-3.165,2.9-5.407,2.9-2.9,0-5.8-1.582-5.8-5.011V98.611c0-3.3,2.9-5.011,5.8-5.011s5.8,1.582,5.8,5.011v3.956H62.582v2.242Zm4.22-9.495c-2.11,0-4.22,1.055-4.088,3.3h0v2.505h8.308V98.611h0C71.022,96.369,69.044,95.314,66.934,95.314Z" transform="translate(-37.923 -88.325)"/>
      <path id="Path_436" data-name="Path 436" class="cls-2" d="M74.378,96.854,73.191,95.8c3.165-3.429,10.945-2.637,10.945,2.769v10.154a16.762,16.762,0,0,1-6.33.923c-3.033,0-5.407-1.978-5.407-5.143,0-5.143,6.2-5.934,10.022-4.22V98.568C82.422,94.744,76.224,94.48,74.378,96.854Zm8.044,5.011c-2.769-1.055-8.308-1.714-8.308,2.637a3.5,3.5,0,0,0,3.824,3.692,17.209,17.209,0,0,0,4.484-.4Z" transform="translate(-34.29 -88.282)"/>
      <path id="Path_437" data-name="Path 437" class="cls-2" d="M90.107,110.7A4.6,4.6,0,0,1,84.7,105.82V89.6h1.714v5.67h3.3v1.714h-3.3v8.835a3.3,3.3,0,0,0,3.824,3.429V110.7Z" transform="translate(-30.37 -89.6)"/>
      <path id="Path_438" data-name="Path 438" class="cls-2" d="M92.719,90a1.319,1.319,0,0,1,0,2.637A1.321,1.321,0,0,1,91.4,91.319,1.418,1.418,0,0,1,92.719,90Zm-.791,20.571h1.714V95.143H91.927Z" transform="translate(-28.235 -89.473)"/>
      <path id="Path_439" data-name="Path 439" class="cls-2" d="M98.414,104.809c0,2.242,2.11,3.3,4.088,3.3a4.229,4.229,0,0,0,3.956-2.11l1.451.791c-.923,1.978-3.165,2.9-5.407,2.9-2.9,0-5.8-1.582-5.8-5.011V98.611c0-3.3,2.9-5.011,5.8-5.011s5.8,1.582,5.8,5.011v3.956h-9.89Zm4.22-9.495c-2.11,0-4.22,1.055-4.088,3.3h0v2.505h8.308V98.611h0C106.722,96.369,104.612,95.314,102.634,95.314Z" transform="translate(-26.546 -88.325)"/>
      <path id="Path_440" data-name="Path 440" class="cls-2" d="M110.214,94.479v3.429h3.3v1.714h-3.3V110.7H108.5V94.611c0-3.3,2.242-5.011,5.143-5.011v1.714A2.988,2.988,0,0,0,110.214,94.479Z" transform="translate(-22.786 -89.6)"/>
      <path id="Path_441" data-name="Path 441" class="cls-2" d="M122.314,89.6v6.33a9.377,9.377,0,0,1,4.22-.923c2.9,0,5.8,1.714,5.8,5.011v6.066c0,3.3-2.9,4.879-5.8,5.011a18.138,18.138,0,0,1-5.934-1.055V89.6Zm0,19.253a11.614,11.614,0,0,0,4.22.527c2.11,0,4.088-1.055,4.088-3.3h0v-6.066h0c0-2.242-2.11-3.3-4.088-3.3a9.377,9.377,0,0,0-4.22.923Z" transform="translate(-18.93 -89.6)"/>
      <path id="Path_442" data-name="Path 442" class="cls-2" d="M144,108.405a12.248,12.248,0,0,0-1.714.527,15.627,15.627,0,0,1-4.22.659c-2.9,0-5.67-1.714-5.67-5.011V93.9h1.714v10.681h0c0,2.11,1.978,3.3,4.088,3.3a11.143,11.143,0,0,0,4.22-.923V93.9h1.714v14.505Z" transform="translate(-15.169 -88.23)"/>
      <path id="Path_443" data-name="Path 443" class="cls-2" d="M151.125,93.924v1.714a5.663,5.663,0,0,0-2.11,0c-1.582.4-2.9,1.451-2.9,3.165v10.549H144.4V98.8c0-2.637,1.978-4.352,4.352-4.879A7.158,7.158,0,0,1,151.125,93.924Z" transform="translate(-11.345 -88.254)"/>
      <path id="Path_444" data-name="Path 444" class="cls-2" d="M152.914,104.809c0,2.242,2.11,3.3,4.088,3.3a4.229,4.229,0,0,0,3.956-2.11l1.451.791c-.923,1.978-3.165,2.9-5.407,2.9-2.9,0-5.8-1.582-5.8-5.011V98.611c0-3.3,2.9-5.011,5.8-5.011s5.8,1.582,5.8,5.011v3.956H152.782v2.242ZM157,95.314c-2.11,0-4.22,1.055-4.088,3.3h0v2.505h8.308V98.611h0C161.222,96.369,159.112,95.314,157,95.314Z" transform="translate(-9.178 -88.325)"/>
      <path id="Path_445" data-name="Path 445" class="cls-2" d="M164.478,96.854,163.291,95.8c3.165-3.429,10.945-2.637,10.945,2.769v10.154a16.762,16.762,0,0,1-6.33.923c-3.033,0-5.407-1.978-5.407-5.143,0-5.143,6.2-5.934,10.022-4.22V98.568C172.654,94.744,166.456,94.48,164.478,96.854Zm8.176,5.011c-2.769-1.055-8.308-1.714-8.308,2.637a3.5,3.5,0,0,0,3.824,3.692,17.209,17.209,0,0,0,4.483-.4v-5.934Z" transform="translate(-5.577 -88.282)"/>
      <path id="Path_446" data-name="Path 446" class="cls-2" d="M186.3,108.405a12.249,12.249,0,0,0-1.714.527,15.628,15.628,0,0,1-4.22.659c-2.9,0-5.67-1.714-5.67-5.011V93.9h1.714v10.681h0c0,2.11,1.978,3.3,4.088,3.3a11.143,11.143,0,0,0,4.22-.923V93.9h1.714v14.505Z" transform="translate(-1.689 -88.23)"/>
    </g>
    <path id="Subtraction_2" data-name="Subtraction 2" d="M16604.5-2227.5h-388v-152h388v152h0v0Zm-99.033-62.391h0l24.66,34.549h30.992l-38.113-49.977L16561.25-2352h-30.463l-26.111,35.733V-2352h-24.527v96.658h24.527v-33.5l.793-1.053ZM16412.24-2304l0,0,27.822,48.657h24.656V-2352h-24.26v51.956L16410.92-2352h-23.207v96.658h24.527V-2304Zm-64.221-48v96.658h24.395V-2352Zm-86.77,0v96.524h36.13c.134,0,.265,0,.392,0a50.867,50.867,0,0,0,13.929-1.853,36.128,36.128,0,0,0,11.882-5.737,27.563,27.563,0,0,0,8.276-9.888,32.037,32.037,0,0,0,3.105-14.3v-32.437a32.556,32.556,0,0,0-3.146-14.506,28.118,28.118,0,0,0-8.376-10.055,36.555,36.555,0,0,0-12.011-5.851,50.745,50.745,0,0,0-14.051-1.9Zm36.927,73.713h0v-.132h-12.4v-50.9h12.4c7.822,0,12.131,3.654,12.131,10.289v30.2a9.955,9.955,0,0,1-2.95,7.649C16305.275-2279.262,16302.188-2278.286,16298.177-2278.286Z" transform="translate(-15451 2822)"/>
  </g>
</svg>
