<svg xmlns="http://www.w3.org/2000/svg" viewBox="0 0 300 139.648">
  <defs>
    <style>
      .cls-1 {
        fill: #23232f;
      }
    </style>
  </defs>
  <g id="Group_1148" data-name="Group 1148" transform="translate(-846.25 -500)">
    <g id="Group_1039" data-name="Group 1039" transform="translate(846.25 500)">
      <path id="Path_429" data-name="Path 429" class="cls-1" d="M90.2,96.659H65.8V0H90.2Z" transform="translate(20.969)"/>
      <path id="Path_430" data-name="Path 430" class="cls-1" d="M36.132,0C55.516,0,73.714,9.89,73.714,32.308v32.44c0,22.286-18.2,31.912-37.582,31.78H0V0Zm.791,73.714c8.308,0,12.132-4.22,12.132-10.549v-30.2c0-6.33-3.956-10.286-12.132-10.286h-12.4v50.9h12.4Z"/>
      <path id="Path_431" data-name="Path 431" class="cls-1" d="M216.637,0H247.1L208.857,46.681l38.11,49.978H215.978L191.319,62.11l-.791,1.055V96.659H166V0h24.527V35.736Z" transform="translate(52.901)"/>
      <path id="Path_432" data-name="Path 432" class="cls-1" d="M148.647,0V51.956L119.109,0H95.9V96.659h24.527V48l27.824,48.659h24.659V0Z" transform="translate(30.562)"/>
    </g>
    <g id="Group_1040" data-name="Group 1040" transform="translate(903.613 618.154)">
      <path id="Path_433" data-name="Path 433" class="cls-1" d="M49.3,95.414c-2.11,0-4.088,1.055-4.088,3.3h0v5.934h0c0,2.242,2.11,3.3,4.088,3.3,1.846,0,3.56-.791,4.088-2.374l1.451.791c-.791,2.242-3.165,3.3-5.538,3.3-2.9,0-5.8-1.582-5.8-5.011V98.711c0-3.3,2.9-5.011,5.8-5.011a6.155,6.155,0,0,1,5.275,2.637l-1.451.923A4.074,4.074,0,0,0,49.3,95.414Z" transform="translate(-43.5 -88.293)"/>
      <path id="Path_434" data-name="Path 434" class="cls-1" d="M61.025,93.924v1.714a5.663,5.663,0,0,0-2.11,0c-1.582.4-2.9,1.451-2.9,3.165v10.549H54.3V98.8c0-2.637,1.978-4.352,4.352-4.879A7.158,7.158,0,0,1,61.025,93.924Z" transform="translate(-40.058 -88.254)"/>
      <path id="Path_435" data-name="Path 435" class="cls-1" d="M62.714,104.809c0,2.242,2.11,3.3,4.088,3.3A4.229,4.229,0,0,0,70.758,106l1.451.791c-.923,1.978-3.165,2.9-5.407,2.9-2.9,0-5.8-1.582-5.8-5.011V98.611c0-3.3,2.9-5.011,5.8-5.011s5.8,1.582,5.8,5.011v3.956H62.582v2.242Zm4.22-9.495c-2.11,0-4.22,1.055-4.088,3.3h0v2.505h8.308V98.611h0C71.022,96.369,69.044,95.314,66.934,95.314Z" transform="translate(-37.923 -88.325)"/>
      <path id="Path_436" data-name="Path 436" class="cls-1" d="M74.378,96.854,73.191,95.8c3.165-3.429,10.945-2.637,10.945,2.769v10.154a16.762,16.762,0,0,1-6.33.923c-3.033,0-5.407-1.978-5.407-5.143,0-5.143,6.2-5.934,10.022-4.22V98.568C82.422,94.744,76.224,94.48,74.378,96.854Zm8.044,5.011c-2.769-1.055-8.308-1.714-8.308,2.637a3.5,3.5,0,0,0,3.824,3.692,17.209,17.209,0,0,0,4.484-.4Z" transform="translate(-34.29 -88.282)"/>
      <path id="Path_437" data-name="Path 437" class="cls-1" d="M90.107,110.7A4.6,4.6,0,0,1,84.7,105.82V89.6h1.714v5.67h3.3v1.714h-3.3v8.835a3.3,3.3,0,0,0,3.824,3.429V110.7Z" transform="translate(-30.37 -89.6)"/>
      <path id="Path_438" data-name="Path 438" class="cls-1" d="M92.719,90a1.319,1.319,0,0,1,0,2.637A1.321,1.321,0,0,1,91.4,91.319,1.418,1.418,0,0,1,92.719,90Zm-.791,20.571h1.714V95.143H91.927Z" transform="translate(-28.235 -89.473)"/>
      <path id="Path_439" data-name="Path 439" class="cls-1" d="M98.414,104.809c0,2.242,2.11,3.3,4.088,3.3a4.229,4.229,0,0,0,3.956-2.11l1.451.791c-.923,1.978-3.165,2.9-5.407,2.9-2.9,0-5.8-1.582-5.8-5.011V98.611c0-3.3,2.9-5.011,5.8-5.011s5.8,1.582,5.8,5.011v3.956h-9.89Zm4.22-9.495c-2.11,0-4.22,1.055-4.088,3.3h0v2.505h8.308V98.611h0C106.722,96.369,104.612,95.314,102.634,95.314Z" transform="translate(-26.546 -88.325)"/>
      <path id="Path_440" data-name="Path 440" class="cls-1" d="M110.214,94.479v3.429h3.3v1.714h-3.3V110.7H108.5V94.611c0-3.3,2.242-5.011,5.143-5.011v1.714A2.988,2.988,0,0,0,110.214,94.479Z" transform="translate(-22.786 -89.6)"/>
      <path id="Path_441" data-name="Path 441" class="cls-1" d="M122.314,89.6v6.33a9.377,9.377,0,0,1,4.22-.923c2.9,0,5.8,1.714,5.8,5.011v6.066c0,3.3-2.9,4.879-5.8,5.011a18.138,18.138,0,0,1-5.934-1.055V89.6Zm0,19.253a11.614,11.614,0,0,0,4.22.527c2.11,0,4.088-1.055,4.088-3.3h0v-6.066h0c0-2.242-2.11-3.3-4.088-3.3a9.377,9.377,0,0,0-4.22.923Z" transform="translate(-18.93 -89.6)"/>
      <path id="Path_442" data-name="Path 442" class="cls-1" d="M144,108.405a12.248,12.248,0,0,0-1.714.527,15.627,15.627,0,0,1-4.22.659c-2.9,0-5.67-1.714-5.67-5.011V93.9h1.714v10.681h0c0,2.11,1.978,3.3,4.088,3.3a11.143,11.143,0,0,0,4.22-.923V93.9h1.714v14.505Z" transform="translate(-15.169 -88.23)"/>
      <path id="Path_443" data-name="Path 443" class="cls-1" d="M151.125,93.924v1.714a5.663,5.663,0,0,0-2.11,0c-1.582.4-2.9,1.451-2.9,3.165v10.549H144.4V98.8c0-2.637,1.978-4.352,4.352-4.879A7.158,7.158,0,0,1,151.125,93.924Z" transform="translate(-11.345 -88.254)"/>
      <path id="Path_444" data-name="Path 444" class="cls-1" d="M152.914,104.809c0,2.242,2.11,3.3,4.088,3.3a4.229,4.229,0,0,0,3.956-2.11l1.451.791c-.923,1.978-3.165,2.9-5.407,2.9-2.9,0-5.8-1.582-5.8-5.011V98.611c0-3.3,2.9-5.011,5.8-5.011s5.8,1.582,5.8,5.011v3.956H152.782v2.242ZM157,95.314c-2.11,0-4.22,1.055-4.088,3.3h0v2.505h8.308V98.611h0C161.222,96.369,159.112,95.314,157,95.314Z" transform="translate(-9.178 -88.325)"/>
      <path id="Path_445" data-name="Path 445" class="cls-1" d="M164.478,96.854,163.291,95.8c3.165-3.429,10.945-2.637,10.945,2.769v10.154a16.762,16.762,0,0,1-6.33.923c-3.033,0-5.407-1.978-5.407-5.143,0-5.143,6.2-5.934,10.022-4.22V98.568C172.654,94.744,166.456,94.48,164.478,96.854Zm8.176,5.011c-2.769-1.055-8.308-1.714-8.308,2.637a3.5,3.5,0,0,0,3.824,3.692,17.209,17.209,0,0,0,4.483-.4v-5.934Z" transform="translate(-5.577 -88.282)"/>
      <path id="Path_446" data-name="Path 446" class="cls-1" d="M186.3,108.405a12.249,12.249,0,0,0-1.714.527,15.628,15.628,0,0,1-4.22.659c-2.9,0-5.67-1.714-5.67-5.011V93.9h1.714v10.681h0c0,2.11,1.978,3.3,4.088,3.3a11.143,11.143,0,0,0,4.22-.923V93.9h1.714v14.505Z" transform="translate(-1.689 -88.23)"/>
    </g>
  </g>
</svg>
