<svg id="Group_1115" data-name="Group 1115" xmlns="http://www.w3.org/2000/svg" viewBox="0 0 108.629 35">
  <defs>
    <style>
      .cls-1 {
        fill: #fff;
      }
    </style>
  </defs>
  <path id="Path_429" data-name="Path 429" class="cls-1" d="M74.634,35H65.8V0h8.834Z" transform="translate(-34.381)"/>
  <path id="Path_430" data-name="Path 430" class="cls-1" d="M13.083,0C20.1,0,26.692,3.581,26.692,11.7V23.445c0,8.07-6.589,11.555-13.608,11.508H0V0Zm.286,26.692c3.008,0,4.393-1.528,4.393-3.82V11.937c0-2.292-1.432-3.724-4.393-3.724H8.881V26.644H13.37Z"/>
  <path id="Path_431" data-name="Path 431" class="cls-1" d="M184.336,0h11.03L181.518,16.9l13.8,18.1H184.1l-8.929-12.51-.286.382V35H166V0h8.881V12.94Z" transform="translate(-86.737)"/>
  <path id="Path_432" data-name="Path 432" class="cls-1" d="M115,0V18.813L104.3,0H95.9V35h8.881V17.381L114.856,35h8.929V0Z" transform="translate(-50.109)"/>
</svg>
