<svg xmlns="http://www.w3.org/2000/svg" viewBox="0 0 36.414 35.486">
  <defs>
    <style>
      .cls-1, .cls-2 {
        fill: none;
        stroke-miterlimit: 10;
        stroke-width: 2px;
      }

      .cls-1 {
        stroke: #676eff;
        stroke-linejoin: round;
      }

      .cls-2 {
        stroke: #fff;
        stroke-linecap: round;
      }
    </style>
  </defs>
  <g id="Muziek_uit" data-name="Muziek uit" transform="translate(-74 -994.976)">
    <path id="Path_460" data-name="Path 460" class="cls-1" d="M146,2V33.5a.991.991,0,0,1-1.7.7l-9.8-8.9a2.389,2.389,0,0,0-1.4-.5H130a2.946,2.946,0,0,1-3-3v-8a2.946,2.946,0,0,1,3-3h3.2a2.389,2.389,0,0,0,1.4-.5l9.8-8.9A.89.89,0,0,1,146,2Z" transform="translate(-52 994.957)"/>
    <line id="Line_2" data-name="Line 2" class="cls-2" x2="10" y2="10" transform="translate(99 1007.657)"/>
    <line id="Line_3" data-name="Line 3" class="cls-2" x1="10" y2="10" transform="translate(99 1007.657)"/>
  </g>
</svg>
