<?xml version="1.0" standalone="no"?>
<!DOCTYPE svg PUBLIC "-//W3C//DTD SVG 1.1//EN" "http://www.w3.org/Graphics/SVG/1.1/DTD/svg11.dtd" >
<svg xmlns="http://www.w3.org/2000/svg" xmlns:xlink="http://www.w3.org/1999/xlink" version="1.1">
<metadata>
Created by FontForge 20170731 at Sat Dec  5 00:44:16 2009
 By Aleksey,,,
Copyright (c) 2009 by (c) 2009 Designed by Svetoslav Simov (c) Fontfabric, Inc. All rights reserved.
</metadata>
<defs>
<font id="Uni-Sans-Thin-Italic" horiz-adv-x="505" >
  <font-face 
    font-family="Uni Sans Thin Italic"
    font-weight="100"
    font-style="italic"
    font-stretch="normal"
    units-per-em="1000"
    panose-1="2 11 4 2 2 2 3 2 2 4"
    ascent="756"
    descent="-244"
    x-height="518"
    cap-height="708"
    bbox="-145 -211 997 891"
    underline-thickness="50"
    underline-position="-200"
    unicode-range="U+0020-FB02"
  />
<missing-glyph horiz-adv-x="563" 
d="M46 0l99 708h466l-99 -708h-466zM330 363l248 329h-404zM337 350l161 -329l94 667zM79 16h404l-157 320zM158 688l-94 -667l255 329z" />
    <glyph glyph-name="fi" unicode="fi" horiz-adv-x="466" 
d="M425 672q1 11 11 19.5t21 8.5t18.5 -8.5t5.5 -19.5q-1 -11 -11 -19.5t-21 -8.5t-18.5 8.5t-5.5 19.5zM347 0l73 521h23l-73 -521h-23zM36 -163l-10 13q36 30 45 96l86 615q10 68 58.5 109.5t104.5 41.5l-3 -19q-52 0 -91 -37t-47 -95l-16 -116h112l-3 -21h-112l-67 -478
q-10 -69 -57 -109z" />
    <glyph glyph-name="fl" unicode="fl" horiz-adv-x="484" 
d="M464 18l-3 -22q-122 11 -103 147l79 565h22l-79 -565q-17 -121 84 -125zM38 -163l-10 13q36 30 45 96l86 615q10 68 58.5 109.5t104.5 41.5l-3 -19q-52 0 -91 -37t-47 -95l-16 -116h112l-3 -21h-112l-67 -478q-10 -69 -57 -109z" />
    <glyph glyph-name=".notdef" horiz-adv-x="563" 
d="M46 0l99 708h466l-99 -708h-466zM330 363l248 329h-404zM337 350l161 -329l94 667zM79 16h404l-157 320zM158 688l-94 -667l255 329z" />
    <glyph glyph-name=".null" horiz-adv-x="0" 
 />
    <glyph glyph-name="nonmarkingreturn" horiz-adv-x="333" 
 />
    <glyph glyph-name="space" unicode=" " horiz-adv-x="282" 
 />
    <glyph glyph-name="exclam" unicode="!" horiz-adv-x="270" 
d="M233 709l-81 -577h-25l81 577h25zM95 30q1 13 11.5 22t23.5 9t21 -9t6 -22t-12.5 -22t-23.5 -9t-20.5 9t-5.5 22z" />
    <glyph glyph-name="quotedbl" unicode="&#x22;" horiz-adv-x="259" 
d="M152 532l25 176h25l-37 -176h-13zM244 532l25 176h25l-37 -176h-13z" />
    <glyph glyph-name="numbersign" unicode="#" horiz-adv-x="715" 
d="M736 454h-164l-83 -195h185l-9 -20h-185l-105 -239h-24l106 239h-200l-105 -239h-24l106 239h-160l8 20h162l84 195h-184l9 21h185l102 234h23l-103 -234h201l101 234h25l-104 -234h163zM467 259l84 195h-201l-84 -195h201z" />
    <glyph glyph-name="dollar" unicode="$" horiz-adv-x="569" 
d="M371 714l10 75h20l-10 -75q146 -5 192 -109l-25 -9q-19 43 -65.5 67.5t-105.5 26.5l-44 -318q48 -10 82 -22.5t67 -34.5t45 -58t2 -85q-17 -79 -88.5 -125t-160.5 -49l-12 -84h-20l12 83q-68 2 -125 30t-86 84l25 10q25 -47 76.5 -72.5t112.5 -27.5l47 330
q-46 10 -78 21.5t-65.5 32.5t-46.5 55.5t-4 81.5q14 81 84.5 125.5t160.5 46.5zM512 172q9 43 -1 74t-39.5 50t-58 29.5t-74.5 21.5l-46 -326q77 3 138 41.5t81 109.5zM151 542q-8 -37 2 -65.5t37 -47.5t58 -31t75 -22l44 314q-80 -2 -140.5 -38.5t-75.5 -109.5z" />
    <glyph glyph-name="percent" unicode="%" horiz-adv-x="709" 
d="M378 525q-11 -83 -56.5 -131.5t-106.5 -48.5q-66 0 -95.5 47t-16.5 135q12 85 56.5 132t106.5 47q65 0 94.5 -47.5t17.5 -133.5zM679 743l18 -12l-600 -779q-5 2 -11.5 7t-7.5 6zM350 525q22 155 -89 155q-108 0 -129 -153q-12 -82 9 -118.5t78 -36.5q109 0 131 153z
M671 173q-12 -83 -57 -131.5t-106 -48.5q-66 0 -95.5 47t-17.5 135q12 85 56.5 132t106.5 47q65 0 95 -47.5t18 -133.5zM643 172q22 155 -91 155q-109 0 -130 -152q-11 -82 10 -118.5t78 -36.5q111 0 133 152z" />
    <glyph glyph-name="ampersand" unicode="&#x26;" horiz-adv-x="607" 
d="M336 402l-25 -14l172 -223l75 98l16 -9l-77 -103l92 -125h-29l-77 103q-59 -66 -114 -99.5t-120 -33.5q-83 0 -132 50t-37 132q16 121 195 218q-76 107 -67 171t61 103.5t117 39.5q56 0 93 -38t29 -94q-9 -60 -54.5 -100.5t-117.5 -75.5zM469 143l-181 239
q-167 -90 -183 -202q-11 -75 30.5 -119t124.5 -44q103 0 209 126zM380 688q-54 0 -97 -34t-50 -85q-9 -63 65 -164q83 39 130.5 77t54.5 92q7 50 -22 82t-81 32z" />
    <glyph glyph-name="quotesingle" unicode="'" horiz-adv-x="186" 
d="M151 531l25 177h27l-33 -177h-19z" />
    <glyph glyph-name="parenleft" unicode="(" horiz-adv-x="260" 
d="M309 762l16 -14q-143 -173 -177 -407q-32 -232 67 -410l-21 -11q-104 189 -71 423q31 229 186 419z" />
    <glyph glyph-name="parenright" unicode=")" horiz-adv-x="245" 
d="M27 -110l-19 13q144 182 176 409q33 231 -62 426l18 10l-2 -1l6 3q101 -189 68 -436q-35 -242 -185 -424z" />
    <glyph glyph-name="asterisk" unicode="*" horiz-adv-x="414" 
d="M316 709l-24 -155q45 13 76.5 23.5t51 17.5t27.5 10l3 -20l-154 -46l77 -130l-18 -11l-75 130q-19 -23 -59 -68t-54 -62l-14 13l117 128q-26 8 -77.5 25t-67.5 22q6 19 7 20l145 -51q1 7 8 66t11 88h20z" />
    <glyph glyph-name="plus" unicode="+" horiz-adv-x="571" 
d="M90 329l3 23h231l32 226h22l-32 -226h223l-3 -23h-223l-32 -227h-22l32 227h-231z" />
    <glyph glyph-name="comma" unicode="," horiz-adv-x="232" 
d="M33 -121l78 162h35l-91 -162h-22z" />
    <glyph glyph-name="hyphen" unicode="-" horiz-adv-x="359" 
d="M85 288l3 24h269l-3 -24h-269z" />
    <glyph glyph-name="period" unicode="." horiz-adv-x="201" 
d="M61 28q2 13 12.5 22t23.5 9t20.5 -9t5.5 -22q-1 -13 -11.5 -22t-23.5 -9t-21 9t-6 22z" />
    <glyph glyph-name="slash" unicode="/" horiz-adv-x="370" 
d="M30 -9l395 732l17 -6q-364 -681 -392 -732q-18 5 -20 6z" />
    <glyph glyph-name="zero" unicode="0" horiz-adv-x="601" 
d="M161 525l-48 -343q-6 -43 8.5 -76t44 -51.5t64.5 -27.5t74 -9q85 0 154.5 40.5t81.5 123.5l48 343q6 44 -8.5 77t-44 51t-64 27t-73.5 9q-54 0 -102 -14.5t-87.5 -53.5t-47.5 -96zM301 -7q-60 0 -110 19.5t-81 64t-22 105.5l48 343q9 62 52.5 106t98.5 63.5t115 19.5
q94 0 159 -49t52 -140l-48 -343q-13 -90 -91.5 -139.5t-172.5 -49.5z" />
    <glyph glyph-name="one" unicode="1" horiz-adv-x="313" 
d="M111 550l167 158h34l-99 -708h-24l95 683l-159 -147q-3 2 -5 4.5t-5 4.5h1z" />
    <glyph glyph-name="two" unicode="2" horiz-adv-x="545" 
d="M365 690q-132 5 -204 -103l-21 10q73 117 230 118q94 -1 148 -54.5t43 -132.5q-13 -86 -109 -170l-369 -333h408l-3 -25h-435l-8 23l390 354q89 76 100 152q9 66 -37.5 112t-132.5 49z" />
    <glyph glyph-name="three" unicode="3" horiz-adv-x="564" 
d="M58 102l23 13q54 -94 188 -94q87 0 158 46t82 127q12 90 -32 134.5t-136 43.5h-68l3 24h68q74 0 122.5 34.5t58.5 106.5t-40 110.5t-125 38.5q-118 0 -182 -77l-19 10q70 90 206 90q85 0 140.5 -44.5t43.5 -127.5q-14 -107 -120 -150q71 -27 93 -75.5t12 -118.5
q-15 -92 -93.5 -144t-174.5 -52q-153 0 -208 105z" />
    <glyph glyph-name="four" unicode="4" horiz-adv-x="538" 
d="M510 708h35l-68 -486h59l-4 -23h-59l-27 -199h-25l27 199h-384l-11 30q46 49 208 219t249 260zM77 222h375l66 462z" />
    <glyph glyph-name="five" unicode="5" horiz-adv-x="579" 
d="M70 99l26 12q22 -42 72 -66t109 -24q85 0 159 52.5t85 135.5l6 41q12 83 -43 132.5t-142 49.5q-105 0 -201 -46q-1 0 -5 -0.5t-6 -0.5l45 323h404l-3 -23h-379l-38 -267q97 40 187 38q93 -1 155.5 -55t50.5 -150l-6 -42q-15 -96 -96 -155t-176 -59q-69 0 -123.5 26
t-80.5 78z" />
    <glyph glyph-name="six" unicode="6" horiz-adv-x="618" 
d="M616 616l-25 -12q-39 84 -179 84q-91 0 -162 -43.5t-82 -122.5l-29 -202q79 110 237 110q99 -1 163 -50.5t51 -138.5l-8 -59q-12 -89 -90 -139t-177 -50q-100 -1 -165.5 49t-54.5 140l48 341q13 89 93 139.5t180 49.5q152 0 200 -96zM557 183l8 57q11 79 -45.5 122.5
t-146.5 43.5q-92 0 -163 -43.5t-82 -122.5l-8 -57q-11 -79 47.5 -122.5t150.5 -43.5q90 0 159 43.5t80 122.5z" />
    <glyph glyph-name="seven" unicode="7" horiz-adv-x="477" 
d="M60 0l469 684h-404l3 24h419l11 -24l-470 -684h-28z" />
    <glyph glyph-name="eight" unicode="8" horiz-adv-x="579" 
d="M280 13h19q83 0 155 47t84 132q14 98 -39 139t-149 41h-19q-215 0 -240 -180q-8 -58 20 -100t72.5 -60.5t96.5 -18.5zM296 -10h-19q-95 0 -158 54.5t-52 146.5q22 148 169 191q-104 36 -87 157q12 81 78.5 126.5t150.5 45.5h19q83 0 137.5 -45.5t43.5 -126.5
q-15 -117 -130 -156q136 -39 115 -192q-15 -92 -93 -146.5t-174 -54.5zM394 689h-19q-76 0 -134 -38.5t-69 -111.5q-6 -42 5.5 -72.5t36.5 -46t54.5 -22t65.5 -6.5h19q182 0 202 147q11 73 -37 111.5t-124 38.5z" />
    <glyph glyph-name="nine" unicode="9" horiz-adv-x="609" 
d="M93 97l26 12q41 -88 176 -88q92 0 163 42.5t82 121.5l27 195q-51 -63 -108 -82.5t-127 -19.5q-99 1 -163 50.5t-52 138.5l8 54q12 89 90 139t177 50q100 1 165.5 -48.5t54.5 -140.5l-47 -335q-13 -89 -93 -139.5t-180 -49.5q-150 0 -199 100zM150 520l-8 -52
q-11 -79 46.5 -122.5t146.5 -43.5q92 0 163 43.5t82 122.5l8 52q11 79 -48 122.5t-151 43.5q-90 0 -159 -43.5t-80 -122.5z" />
    <glyph glyph-name="colon" unicode=":" horiz-adv-x="240" 
d="M148 435q1 13 11.5 22t23.5 9t21 -9t6 -22t-12.5 -22t-23.5 -9t-20.5 9t-5.5 22zM95 57q1 13 11.5 22t23.5 9t21 -9t6 -22t-12.5 -22t-23.5 -9t-20.5 9t-5.5 22z" />
    <glyph glyph-name="semicolon" unicode=";" horiz-adv-x="248" 
d="M51 -99l64 144h41l-80 -144h-25zM151 420q1 13 11.5 22t23.5 9t21 -9t6 -22t-12.5 -22t-23.5 -9t-20.5 9t-5.5 22z" />
    <glyph glyph-name="less" unicode="&#x3c;" horiz-adv-x="445" 
d="M455 506l-4 -26l-325 -177l275 -175l-3 -25q-50 33 -148 93.5t-148 93.5l4 26z" />
    <glyph glyph-name="equal" unicode="=" horiz-adv-x="534" 
d="M137 360l3 22h373l-3 -22h-373zM118 222l3 22h373l-3 -22h-373z" />
    <glyph glyph-name="greater" unicode="&#x3e;" horiz-adv-x="480" 
d="M159 480l4 26q51 -34 150.5 -96t147.5 -94l-4 -26l-351 -187l3 23l329 177q-36 23 -132.5 84.5t-146.5 92.5z" />
    <glyph glyph-name="question" unicode="?" horiz-adv-x="463" 
d="M135 630l-12 14q81 69 176 69q85 0 139.5 -50t41.5 -138q-13 -90 -81 -146.5t-155 -65.5q-21 -123 -33 -193h-18l26 210q88 6 158 59.5t80 136.5q10 78 -39 121t-125 43q-78 0 -158 -60zM193 51q11 0 17.5 -8t5.5 -19t-10.5 -18.5t-20.5 -7.5t-17.5 7.5t-5.5 18.5
t10.5 19t20.5 8z" />
    <glyph glyph-name="at" unicode="@" horiz-adv-x="750" 
d="M242 227q-7 -49 16.5 -80t68.5 -31q56 0 110.5 52t87.5 122q15 31 21.5 63.5t3 61.5t-24.5 46t-58 15q-59 1 -110 -41t-79 -97.5t-36 -110.5zM616 474h21l-125 -262q-7 -14 -9.5 -20.5t-7.5 -20t-4.5 -20t2.5 -15t10.5 -12t21.5 -3.5q69 0 135.5 76t80.5 174
q16 117 -61.5 189t-199.5 72q-144 0 -249.5 -95t-125.5 -236q-12 -86 11.5 -154t74.5 -105t122 -48.5t154 16.5l3 -19q-70 -19 -132 -19.5t-113.5 24.5t-86.5 65.5t-50 103t-4 136.5q21 151 136 251.5t261 100.5q138 0 218.5 -78.5t63.5 -203.5q-17 -120 -99 -198.5
t-155 -73.5q-62 4 -33 82q-74 -85 -157 -85q-55 0 -80 37t-17 92q15 106 86 188.5t166 82.5q13 0 25 -2t26 -8.5t24 -17.5t16 -31t4 -47l5 -1z" />
    <glyph glyph-name="A" unicode="A" horiz-adv-x="619" 
d="M26 0l358 715h47q28 -132 83 -375t76 -340h-27l-58 253h-327l-125 -253h-27zM409 703h-6l-212 -425h310z" />
    <glyph glyph-name="B" unicode="B" horiz-adv-x="630" 
d="M214 685l-42 -298h234q73 0 122 37t60 111q10 72 -29.5 111t-110.5 39h-234zM403 363h-234l-48 -339h234q194 -3 217 166q13 90 -31.5 132t-137.5 41zM487 376l34 -12q50 -23 67.5 -72t8.5 -103q-30 -189 -246 -189h-258l99 708h259q81 0 127 -45.5t34 -126.5
q-15 -102 -91 -143z" />
    <glyph glyph-name="C" unicode="C" horiz-adv-x="576" 
d="M90 194l45 322q13 92 95.5 145t183.5 53q70 0 126 -26.5t80 -75.5l-25 -16q-20 44 -72.5 69t-115.5 25q-90 0 -163 -46t-84 -128l-45 -322q-12 -82 48 -127.5t150 -45.5q63 0 121.5 23t92.5 66q3 -3 20 -11q-37 -49 -102 -76t-135 -27q-100 0 -166.5 52.5t-53.5 145.5z
" />
    <glyph glyph-name="D" unicode="D" horiz-adv-x="607" 
d="M322 0h-239l99 708h239q100 0 157.5 -47.5t43.5 -142.5l-46 -329q-14 -95 -84 -142t-170 -47zM203 683l-92 -658h214q90 0 152.5 40.5t73.5 123.5l46 329q12 84 -38.5 124.5t-141.5 40.5h-214z" />
    <glyph glyph-name="E" unicode="E" horiz-adv-x="572" 
d="M616 708l-4 -25h-396l-44 -317h366l-4 -27h-366l-44 -314h396l-3 -25h-421l99 708h421z" />
    <glyph glyph-name="F" unicode="F" horiz-adv-x="540" 
d="M189 708h408l-4 -25h-383l-46 -330h348l-3 -25h-348l-46 -328h-25z" />
    <glyph glyph-name="G" unicode="G" horiz-adv-x="653" 
d="M88 198l45 317q13 92 94.5 145t181.5 53q69 0 125 -27t79 -76l-25 -15q-19 46 -69.5 69.5t-115.5 23.5q-90 0 -162 -45.5t-83 -127.5l-45 -317q-11 -84 48 -130.5t150 -46.5t164.5 47t84.5 130l18 127h-217l4 24h242l-22 -151q-9 -64 -52.5 -111t-102 -68.5t-122.5 -21.5
q-101 0 -167 53t-53 148z" />
    <glyph glyph-name="H" unicode="H" horiz-adv-x="688" 
d="M567 0l47 341h-447l-47 -341h-25l99 708h25l-48 -342h447l48 342h25l-99 -708h-25z" />
    <glyph glyph-name="I" unicode="I" horiz-adv-x="232" 
d="M97 0l99 708h25l-99 -708h-25z" />
    <glyph glyph-name="J" unicode="J" horiz-adv-x="579" 
d="M484 192l70 493h-236l3 23h261l-73 -516q-13 -92 -91 -144.5t-174 -52.5q-77 0 -134.5 37.5t-69.5 105.5l26 8q12 -63 64.5 -95t117.5 -32q85 0 155 45.5t81 127.5z" />
    <glyph glyph-name="K" unicode="K" horiz-adv-x="573" 
d="M92 0l99 708h25l-60 -430q76 66 239 215t240 215h32l-375 -341q42 -53 88 -114.5t102 -137t86 -115.5h-29l-267 349l-121 -106l-34 -243h-25z" />
    <glyph glyph-name="L" unicode="L" horiz-adv-x="499" 
d="M121 25h354l-3 -25h-379l99 708h25z" />
    <glyph glyph-name="M" unicode="M" horiz-adv-x="797" 
d="M766 690l-335 -578h-34l-175 571l-9 -1l-95 -682h-25l99 708h53l172 -573q54 92 166.5 286.5t166.5 286.5h53l-99 -708h-25l96 690h-9z" />
    <glyph glyph-name="N" unicode="N" horiz-adv-x="689" 
d="M95 0l99 708h39l325 -684l96 684h25l-99 -708h-43l-320 676l-96 -676h-26z" />
    <glyph glyph-name="O" unicode="O" horiz-adv-x="682" 
d="M104 196l45 317q13 94 98.5 147t192.5 53t178 -53t58 -147l-45 -317q-13 -94 -99 -147.5t-193 -53.5t-177.5 53.5t-57.5 147.5zM174 513l-45 -317q-12 -84 52 -130t161 -46t174 46t90 130l45 317q12 87 -52.5 131.5t-163.5 44.5q-98 -1 -173.5 -45.5t-87.5 -130.5z" />
    <glyph glyph-name="P" unicode="P" horiz-adv-x="616" 
d="M387 282h-226l-39 -282h-25l99 708h250q69 -1 115 -33.5t62.5 -80t9.5 -101.5q-12 -84 -78 -147t-168 -64zM165 307h225q92 0 149.5 55.5t68.5 131.5t-32 133t-133 58h-225z" />
    <glyph glyph-name="Q" unicode="Q" horiz-adv-x="683" 
d="M473 148l21 14l48 -77q54 39 64 112l45 317q11 84 -53 130t-161 46q-98 -1 -174 -45.5t-88 -130.5l-45 -317q-12 -82 52 -129.5t161 -47.5t181 50zM556 65l44 -63l-21 -13l-43 61q-88 -54 -196 -54q-107 0 -177.5 53.5t-57.5 147.5l45 317q13 94 98.5 147t192.5 53
q106 0 177 -53t58 -147l-45 -317q-6 -44 -23.5 -72.5t-51.5 -59.5z" />
    <glyph glyph-name="R" unicode="R" horiz-adv-x="624" 
d="M391 316h-38l195 -316h-29l-194 316h-161l-44 -316h-24l98 701h250q100 0 152.5 -45t40.5 -147q-15 -104 -78.5 -148.5t-167.5 -44.5zM167 338h227q100 0 153 39.5t66 130.5t-33.5 131.5t-137.5 38.5h-227z" />
    <glyph glyph-name="S" unicode="S" horiz-adv-x="595" 
d="M173 542q-8 -38 3 -67t39.5 -48t62 -31t79.5 -22q24 -5 42.5 -9.5t41 -12t38.5 -16t33.5 -20t26.5 -25.5t18 -32t8 -39t-4 -48q-17 -81 -93.5 -128t-169.5 -47q-70 0 -128.5 28.5t-88.5 85.5l25 10q26 -48 79.5 -74t117.5 -26q80 0 145 38.5t86 112.5q4 19 4 35
t-3.5 29.5t-9 25t-15.5 21t-19.5 17t-24 14t-26.5 11t-29.5 9.5t-30.5 8.5t-32 7.5q-37 8 -63.5 15.5t-58 23t-49.5 34.5t-27 49.5t-2 69.5q14 83 87 127.5t165 44.5q157 0 205 -109l-25 -9q-20 46 -70.5 70t-113.5 24q-53 0 -97.5 -14.5t-79.5 -48.5t-46 -85z" />
    <glyph glyph-name="T" unicode="T" horiz-adv-x="548" 
d="M122 683l4 25h497l-4 -25h-236l-95 -683h-25l95 683h-236z" />
    <glyph glyph-name="U" unicode="U" horiz-adv-x="684" 
d="M120 199l72 509h25l-72 -509q-11 -85 48 -132.5t150 -47.5q58 0 110.5 19.5t91.5 61.5t47 99l72 509h25l-72 -509q-9 -65 -52.5 -112.5t-102 -69.5t-122.5 -22q-101 0 -167 54t-53 150z" />
    <glyph glyph-name="V" unicode="V" horiz-adv-x="607" 
d="M300 6h6q268 541 347 703h27l-352 -714h-53q-26 119 -79.5 356.5t-79.5 356.5h28z" />
    <glyph glyph-name="W" unicode="W" horiz-adv-x="924" 
d="M668 10h6l296 698h27l-306 -710h-46l-103 580q-49 -109 -140.5 -305.5t-127.5 -274.5h-46q-19 133 -56 375t-51 335h27l103 -696h5l273 590h31z" />
    <glyph glyph-name="X" unicode="X" horiz-adv-x="589" 
d="M608 708h29l-283 -355q35 -63 97.5 -186.5t85.5 -166.5h-29l-170 336l-264 -336h-31l282 353l-182 355h28l172 -332q81 101 139.5 174t85.5 107.5t40 50.5z" />
    <glyph glyph-name="Y" unicode="Y" horiz-adv-x="570" 
d="M613 708h31l-311 -427l-39 -281h-25l39 281l-182 427h30l169 -399z" />
    <glyph glyph-name="Z" unicode="Z" horiz-adv-x="547" 
d="M28 12l550 674h-435l3 22h460l7 -13l-549 -673h441l-3 -22h-465z" />
    <glyph glyph-name="bracketleft" unicode="[" horiz-adv-x="235" 
d="M306 751l-3 -21h-92l-116 -828h92l-3 -22h-116l122 871h116z" />
    <glyph glyph-name="backslash" unicode="\" horiz-adv-x="362" 
d="M132 748l200 -770l-23 -7l-197 770z" />
    <glyph glyph-name="bracketright" unicode="]" horiz-adv-x="210" 
d="M6 -126l3 25h90l117 828h-90l3 24h116l-123 -877h-116z" />
    <glyph glyph-name="asciicircum" unicode="^" horiz-adv-x="545" 
d="M133 452l212 256h28q86 -158 146 -256h-27l-135 239l-197 -239h-27z" />
    <glyph glyph-name="underscore" unicode="_" horiz-adv-x="500" 
d="M10 -43l4 22h466l-4 -22h-466z" />
    <glyph glyph-name="grave" unicode="`" horiz-adv-x="210" 
d="M177 708l46 -103h-25l-60 103h39z" />
    <glyph glyph-name="a" unicode="a" 
d="M421 0h-21l7 62q-69 -69 -177 -69q-70 0 -115 37.5t-35 111.5l33 231q8 55 41.5 91t77 50t96.5 14q86 0 161 -34zM408 84l3 4l55 390q-60 30 -136 30t-131.5 -32.5t-64.5 -101.5l-33 -232q-9 -65 29 -97t102 -32q48 0 96 19t80 52z" />
    <glyph glyph-name="b" unicode="b" horiz-adv-x="501" 
d="M77 13l98 695h22l-31 -222q89 39 163 39q72 1 120.5 -40t38.5 -111l-32 -227q-10 -71 -69 -113t-130 -44q-108 0 -180 23zM173 466l-11 -6l-60 -429q55 -20 158 -20q60 0 113 38.5t60 95.5l32 229q9 58 -32.5 93t-105.5 36q-68 0 -154 -37z" />
    <glyph glyph-name="c" unicode="c" horiz-adv-x="442" 
d="M460 455l-18 -11q-32 56 -128 56q-65 0 -116 -33t-59 -94l-32 -229q-9 -63 32.5 -96t106.5 -33q47 0 89.5 19t65.5 55q5 -2 10.5 -5t9.5 -5q-28 -41 -76.5 -63.5t-101.5 -22.5q-73 0 -120.5 40t-37.5 111l32 227q10 71 68.5 111t131.5 40q105 0 143 -67z" />
    <glyph glyph-name="d" unicode="d" horiz-adv-x="511" 
d="M511 708h23l-97 -691q-88 -26 -188 -26q-74 2 -120 38.5t-36 112.5l33 231q10 72 69 112.5t132 39.5q85 0 154 -33zM417 37l60 429q-78 36 -154 36q-66 -1 -116 -34t-58 -94l-33 -232q-9 -62 31.5 -94.5t105.5 -32.5q93 0 164 22z" />
    <glyph glyph-name="e" unicode="e" horiz-adv-x="491" 
d="M120 243l-14 -99q-9 -64 33.5 -95.5t107.5 -31.5q99 0 148 62l16 -10q-29 -35 -74 -54.5t-93 -19.5q-73 0 -120.5 39.5t-37.5 110.5l31 218q11 76 70 118t132 42t119.5 -40t35.5 -116t-68.5 -117t-132.5 -41q-85 0 -153 34zM137 364l-14 -100q76 -35 153 -35
q68 0 117.5 34.5t60.5 103.5q9 65 -32 101t-106 36q-66 0 -118 -36.5t-61 -103.5z" />
    <glyph glyph-name="f" unicode="f" horiz-adv-x="262" 
d="M37 -163l-10 13q36 30 45 96l86 615q10 68 58.5 109.5t104.5 41.5l-3 -19q-52 0 -91 -37t-47 -95l-16 -116h112l-3 -21h-112l-67 -478q-10 -69 -57 -109z" />
    <glyph glyph-name="g" unicode="g" horiz-adv-x="501" 
d="M84 -121l18 15q52 -42 127 -42q64 0 113.5 31.5t57.5 92.5l9 63q-85 -39 -161 -39q-72 -1 -119.5 39.5t-37.5 110.5l31 223q10 69 67 108.5t128 40.5q75 0 176 -36l-72 -509q-10 -71 -67 -108.5t-129 -37.5q-92 0 -141 48zM402 58l11 7l56 403q-72 32 -155 32
q-63 0 -112.5 -33.5t-57.5 -92.5l-31 -224q-9 -60 31.5 -93.5t103.5 -35.5q61 1 154 37z" />
    <glyph glyph-name="h" unicode="h" horiz-adv-x="528" 
d="M86 0l99 708h22l-31 -224q77 34 161 34q72 2 120 -38.5t38 -111.5l-51 -368h-22l51 368q8 61 -33 94t-105 34q-73 0 -163 -34l-64 -462h-22z" />
    <glyph glyph-name="i" unicode="i" horiz-adv-x="215" 
d="M174 664q1 11 11 19.5t21 8.5t18.5 -8.5t5.5 -19.5q-1 -11 -11 -19.5t-21 -8.5t-18.5 8.5t-5.5 19.5zM97 0l73 521h23l-73 -521h-23z" />
    <glyph glyph-name="j" unicode="j" horiz-adv-x="219" 
d="M174 660q1 11 11 19.5t21 8.5t18.5 -8.5t5.5 -19.5q-1 -11 -11 -19.5t-21 -8.5t-18.5 8.5t-5.5 19.5zM-38 -175l3 22q114 10 130 131l77 544h22l-77 -544q-10 -69 -51.5 -108.5t-103.5 -44.5z" />
    <glyph glyph-name="k" unicode="k" horiz-adv-x="472" 
d="M85 0l99 708h22l-70 -501l341 311h27l-251 -233l181 -285h-25l-175 269l-102 -90l-25 -179h-22z" />
    <glyph glyph-name="l" unicode="l" horiz-adv-x="232" 
d="M207 18l-3 -22q-122 11 -103 147l79 565h22l-79 -565q-17 -121 84 -125z" />
    <glyph glyph-name="m" unicode="m" horiz-adv-x="822" 
d="M111 0h-23l68 484q63 39 158 39q119 0 155 -82q36 46 73.5 62t88.5 18q74 3 119.5 -39.5t35.5 -118.5l-51 -363h-23l50 361q10 67 -30.5 102t-102.5 35q-57 0 -102.5 -29t-53.5 -82l-54 -387h-22l54 387q6 53 -38 83.5t-109 30.5q-72 0 -128 -33z" />
    <glyph glyph-name="n" unicode="n" horiz-adv-x="532" 
d="M109 0h-22l69 493q92 31 186 31q73 -2 118.5 -40t35.5 -111l-52 -373h-22l52 373q8 62 -33 95t-102 33q-97 0 -164 -27z" />
    <glyph glyph-name="o" unicode="o" horiz-adv-x="503" 
d="M322 503q-64 0 -115.5 -32.5t-60.5 -96.5l-32 -229q-9 -64 33.5 -97t106.5 -33q63 0 114.5 33t60.5 97l32 229q9 63 -33.5 96t-105.5 33zM92 145l32 229q10 71 69 111t132 41q73 -1 120.5 -41t37.5 -111l-32 -229q-10 -71 -68.5 -111t-131.5 -41q-73 1 -121 41t-38 111z
" />
    <glyph glyph-name="p" unicode="p" 
d="M48 -192l97 695q78 23 186 23q71 -2 118 -44t37 -113l-31 -226q-10 -70 -70 -111t-132 -40q-74 0 -152 39l-31 -223h-22zM105 57l9 -6q76 -37 143 -37q64 1 115.5 35.5t59.5 93.5l32 228q9 57 -33.5 95.5t-102.5 38.5q-102 0 -163 -20z" />
    <glyph glyph-name="q" unicode="q" 
d="M499 503l-97 -695h-22l31 223q-90 -39 -164 -39q-72 -1 -120 40t-38 111l31 226q10 71 69 113t130 44q110 0 180 -23zM404 51l11 6l60 428q-56 20 -159 20q-60 0 -112.5 -38.5t-59.5 -95.5l-32 -228q-9 -58 32.5 -93t104.5 -36q69 0 155 37z" />
    <glyph glyph-name="r" unicode="r" horiz-adv-x="307" 
d="M283 520q16 3 29 3l38 -2l-3 -21q-60 0 -68 -2q-48 -11 -84 -44t-42 -82l-52 -372h-22l52 372q8 59 50.5 98t101.5 50z" />
    <glyph glyph-name="s" unicode="s" horiz-adv-x="422" 
d="M56 80l20 13q53 -80 148 -77q48 1 95 31t54 85q13 97 -117 123q-33 6 -57 14t-48 22.5t-35 39t-6 57.5q9 64 61.5 99t117.5 35q83 0 127 -49q-6 -5 -16 -15q-39 44 -115 44q-55 0 -99.5 -29.5t-54.5 -84.5q-4 -30 5 -50.5t35 -33t38.5 -16t45.5 -10.5q6 -2 8 -2
q147 -27 132 -144q-9 -62 -60 -99t-114 -39q-112 -3 -165 86z" />
    <glyph glyph-name="t" unicode="t" horiz-adv-x="275" 
d="M248 20l-3 -21q-66 0 -107.5 42t-32.5 109l78 558h22l-27 -190h112l-3 -22h-112l-48 -346q-9 -61 31.5 -95.5t89.5 -34.5z" />
    <glyph glyph-name="u" unicode="u" horiz-adv-x="517" 
d="M488 519h22l-69 -494q-94 -32 -186 -32q-72 2 -118 41.5t-36 109.5l52 375h22l-52 -375q-8 -60 34 -94.5t101 -34.5q92 0 164 29z" />
    <glyph glyph-name="v" unicode="v" horiz-adv-x="467" 
d="M127 518l110 -503l250 503h24q-42 -86 -128.5 -258.5t-128.5 -259.5h-38q-90 402 -114 518h25z" />
    <glyph glyph-name="w" unicode="w" horiz-adv-x="712" 
d="M425 495h-2l-194 -495h-47l-79 518h27l75 -504h3l200 504h39l61 -503h3l216 503h27l-223 -518h-47z" />
    <glyph glyph-name="x" unicode="x" horiz-adv-x="451" 
d="M262 275l190 243h27l-204 -259q18 -35 63 -124.5t68 -134.5h-26l-122 243l-191 -243h-27l205 259l-133 259h28z" />
    <glyph glyph-name="y" unicode="y" horiz-adv-x="519" 
d="M486 518h22l-76 -541q-10 -71 -67 -108.5t-129 -37.5q-92 0 -141 48l19 17q52 -43 126 -43q37 0 72.5 12.5t63.5 41.5t34 69l8 59q-87 -40 -160 -40q-72 -1 -120.5 39.5t-38.5 110.5l52 373h23l-52 -373q-9 -60 32 -93.5t105 -35.5q56 1 152 38l11 7z" />
    <glyph glyph-name="z" unicode="z" horiz-adv-x="431" 
d="M29 21l401 477h-317l3 20h335q3 -5 8 -17l-405 -480h334l-2 -21h-345z" />
    <glyph glyph-name="braceleft" unicode="{" horiz-adv-x="273" 
d="M332 748l-3 -21h-22q-40 0 -52 -20t-19 -73l-21 -146q-10 -76 -36 -121t-53 -55q60 -27 39 -174l-21 -147q-6 -45 4 -65t49 -20h16l-3 -21h-17q-49 0 -64 26.5t-8 78.5l20 145q22 150 -46 168l3 18q73 18 94 169l21 145q8 58 26.5 85.5t69.5 27.5h23z" />
    <glyph glyph-name="bar" unicode="|" horiz-adv-x="230" 
d="M238 754h-36l-129 -922h36zM230 747h-22l-127 -908h22zM196 761h50l-131 -936h-50z" />
    <glyph glyph-name="braceright" unicode="}" horiz-adv-x="271" 
d="M135 727l2 20h23q47 0 60 -27.5t5 -84.5l-21 -145q-21 -151 48 -169l-3 -18q-73 -18 -94 -168l-20 -144q-15 -106 -102 -106h-17l3 21h15q39 0 55.5 22t22.5 63l21 145q19 135 89 179q-24 10 -37.5 55t-2.5 120l21 144q10 44 2 68.5t-48 24.5h-22z" />
    <glyph glyph-name="asciitilde" unicode="~" horiz-adv-x="526" 
d="M492 339l8 -12q-47 -71 -112 -71q-32 0 -82.5 35t-75.5 35q-53 0 -101 -56q-1 2 -4.5 7t-4.5 6q48 65 114 65q32 0 80 -35t78 -35q50 0 100 61z" />
    <glyph glyph-name="uni00A0" unicode="&#xa0;" horiz-adv-x="260" 
 />
    <glyph glyph-name="exclamdown" unicode="&#xa1;" horiz-adv-x="278" 
d="M93 -205l80 572h27l-80 -572h-27zM235 490q-1 -13 -11.5 -22t-23.5 -9t-21 9t-6 22t12.5 22t23.5 9t20.5 -9t5.5 -22z" />
    <glyph glyph-name="cent" unicode="&#xa2;" horiz-adv-x="460" 
d="M462 455l-17 -12q-17 26 -49 42.5t-70 15.5l-68 -483q42 2 85.5 23t60.5 51l18 -9q-49 -77 -167 -87l-13 -90h-21l13 90q-71 8 -113.5 47.5t-33.5 104.5l32 223q9 66 64.5 107t124.5 44l13 91h21l-13 -91q95 -6 133 -67zM237 19l68 481q-61 -2 -109 -36.5t-55 -91.5
l-32 -224q-8 -54 29 -87t99 -42z" />
    <glyph glyph-name="sterling" unicode="&#xa3;" horiz-adv-x="446" 
d="M37 0l2 21h104l48 341h-104l3 20h104l20 142q5 34 18.5 65t37.5 59.5t63.5 46t90.5 17.5q64 0 106 -38l-17 -17q-37 34 -94 34q-78 0 -125 -49.5t-56 -114.5l-21 -145h165l-3 -20h-165l-48 -341h245l-2 -21h-372z" />
    <glyph glyph-name="currency" unicode="&#xa4;" horiz-adv-x="561" 
d="M79 141l62 54q-53 69 -40 159q13 91 82 157l-44 52l15 16l44 -55q86 61 168 61q80 0 147 -59l59 53l13 -12l-62 -56q55 -69 42 -157q-13 -89 -84 -156l50 -55q-7 -4 -17 -14l-48 54q-88 -63 -166 -63t-149 61l-60 -53zM121 353q-12 -88 41 -149.5t139 -61.5
q87 0 158.5 61.5t83.5 149.5q13 89 -41 151t-141 62q-86 0 -156.5 -62t-83.5 -151z" />
    <glyph glyph-name="yen" unicode="&#xa5;" horiz-adv-x="490" 
d="M561 708h29l-288 -416h153l-9 -23h-162l-10 -74h167q-1 -2 -1 -3t-1 -3v1l-5 -17h-163l-24 -173h-23l24 173h-165l6 22h162l10 74h-163q0 2 1 3.5t2.5 6.5t4.5 13h146q-26 64 -166 416h29l162 -410z" />
    <glyph glyph-name="brokenbar" unicode="&#xa6;" horiz-adv-x="213" 
d="M194 706h24l-47 -333h-24zM125 219h24l-48 -346h-24z" />
    <glyph glyph-name="section" unicode="&#xa7;" horiz-adv-x="491" 
d="M217 206l105 -55q41 20 76 53t40 69q5 38 -18 69t-55 50l-77 40q-130 -43 -141 -119q-4 -27 9.5 -50.5t26 -33t34.5 -23.5zM64 -32l24 10q18 -43 55.5 -63t79.5 -21q60 -1 104.5 26t53.5 93q4 27 -4.5 49t-31 40t-39 28.5t-51 27.5t-44.5 22q-47 27 -71 57.5t-18 75.5
q12 79 139 132q-44 29 -64 58t-15 66q9 65 64.5 104t122.5 39q42 0 80 -17.5t50 -54.5l-21 -11q-26 60 -113 60q-55 0 -103 -33.5t-56 -86.5q-3 -25 4.5 -44.5t31 -37t38 -25.5t50.5 -26q32 -16 52 -28t43 -32t32.5 -45t5.5 -55q-5 -39 -39 -75t-82 -61q38 -24 56 -57
t13 -63q-11 -78 -65 -113.5t-127 -35.5q-53 0 -97 25.5t-58 71.5z" />
    <glyph glyph-name="dieresis" unicode="&#xa8;" horiz-adv-x="300" 
d="M304 685q2 10 9.5 17t17.5 7t16 -7t5 -17t-9.5 -17t-18.5 -7t-16 7t-4 17zM124 685q2 10 9.5 17t17.5 7t16 -7t5 -17t-9.5 -17t-18.5 -7t-16 7t-4 17z" />
    <glyph glyph-name="copyright" unicode="&#xa9;" horiz-adv-x="795" 
d="M96 354q21 146 140 250.5t265 104.5t236 -104.5t69 -250.5q-20 -146 -139.5 -250.5t-265.5 -104.5t-235.5 104.5t-69.5 250.5zM119 354q-19 -139 64 -235.5t222 -96.5t248.5 96.5t129.5 235.5t-63 235.5t-222 96.5t-249.5 -96.5t-129.5 -235.5zM627 514l-19 -11
q-32 56 -128 56q-65 0 -116 -33t-59 -94l-21 -153q-9 -63 32.5 -96t106.5 -33q47 0 89.5 19t65.5 55q4 -2 9.5 -5t10.5 -5q-28 -41 -76.5 -63.5t-102.5 -22.5q-72 0 -119.5 39.5t-37.5 111.5l21 151q10 71 68.5 111t131.5 40q105 0 144 -67z" />
    <glyph glyph-name="ordfeminine" unicode="&#xaa;" horiz-adv-x="331" 
d="M332 559l7 51q6 37 -19.5 55.5t-66.5 18.5q-46 0 -89 -31l-13 13q51 39 107 39q47 0 77.5 -24.5t24.5 -69.5l-31 -223q-70 -20 -132 -19q-45 1 -72 31.5t-20 78.5q15 98 137 98q49 0 90 -18zM310 400l19 140q-49 18 -92 18q-99 0 -111 -79q-6 -40 16 -64.5t60 -25.5
q52 0 108 11z" />
    <glyph glyph-name="guillemotleft" unicode="&#xab;" horiz-adv-x="383" 
d="M194 116l-97 179l147 181q9 -6 14 -11q2 -2 3 -2l-138 -168q24 -45 51 -98t37 -70zM318 116l-97 179l147 181q9 -6 14 -11q2 -2 3 -2l-140 -168q14 -26 45.5 -84t45.5 -84z" />
    <glyph glyph-name="logicalnot" unicode="&#xac;" horiz-adv-x="553" 
d="M494 187l24 174h-422l3 21h443l-27 -195h-21z" />
    <glyph glyph-name="uni00AD" unicode="&#xad;" horiz-adv-x="333" 
d="M88 258l3 23h228l-3 -23h-228z" />
    <glyph glyph-name="registered" unicode="&#xae;" horiz-adv-x="785" 
d="M341 328l-24 -170h-20l56 398h136q62 0 92 -31.5t23 -79.5q-7 -50 -45 -80.5t-91 -34.5l99 -172h-22l-101 170h-103zM370 537l-27 -191h86q140 0 154 99q6 47 -24 69.5t-76 22.5h-113zM89 354q21 146 140 250.5t265 104.5t236 -104.5t69 -250.5q-20 -146 -139.5 -250.5
t-265.5 -104.5t-235.5 104.5t-69.5 250.5zM113 354q-19 -138 64 -234.5t221 -96.5t247.5 96.5t129.5 234.5t-63 234.5t-221 96.5t-248.5 -96.5t-129.5 -234.5z" />
    <glyph glyph-name="macron" unicode="&#xaf;" horiz-adv-x="275" 
d="M348 708l-3 -24h-237l3 24h237z" />
    <glyph glyph-name="degree" unicode="&#xb0;" horiz-adv-x="341" 
d="M236 509q-42 0 -67.5 30t-19.5 73q5 42 39.5 71.5t76.5 29.5t67.5 -29.5t20.5 -71.5q-6 -43 -40.5 -73t-76.5 -30zM239 528q34 0 61 24t31 59q5 35 -15 59t-54 24t-61 -24t-32 -59q-4 -35 16 -59t54 -24z" />
    <glyph glyph-name="plusminus" unicode="&#xb1;" horiz-adv-x="553" 
d="M129 398l3 21h188l26 179h21l-26 -179h195l-3 -21h-195l-25 -182h-21l25 182h-188zM90 112l3 20h401l-3 -20h-401z" />
    <glyph glyph-name="twosuperior" unicode="&#xb2;" horiz-adv-x="348" 
d="M316 505l-207 -185h234l-2 -19h-258l-1 2l-3 14l224 200q68 59 58 110q-22 67 -99 67q-68 0 -110 -50l-13 6h1l-3 2q48 61 128 61q42 0 73.5 -19.5t41.5 -56.5l-1 1q10 -37 -9.5 -72.5t-53.5 -60.5z" />
    <glyph glyph-name="threesuperior" unicode="&#xb3;" horiz-adv-x="345" 
d="M314 517q63 -21 53 -102q-8 -55 -57 -86t-106 -28q-37 2 -68 19.5t-42 47.5l20 7q23 -51 94 -55q45 -3 89 23t50 72q6 49 -20 71.5t-72 20.5h-33l2 17h33q47 0 72 21q24 20 28 52t-12 53q-27 34 -78 34q-67 0 -107 -45q-10 7 -12 10q44 48 110.5 52.5t102.5 -38.5
q20 -23 15 -63.5t-33 -65.5q-7 -6 -29 -17z" />
    <glyph glyph-name="acute" unicode="&#xb4;" horiz-adv-x="220" 
d="M156 589l72 119h39l-89 -119h-22z" />
    <glyph glyph-name="mu" unicode="&#xb5;" horiz-adv-x="502" 
d="M506 518l-69 -518h-22l19 137q-30 -72 -84.5 -104.5t-114.5 -32.5q-111 0 -125 96l-42 -307h-22l102 729h23l-46 -328q-6 -43 -0.5 -78.5t33.5 -64t79 -28.5q77 0 133.5 55.5t71.5 156.5l40 287h24z" />
    <glyph glyph-name="paragraph" unicode="&#xb6;" horiz-adv-x="551" 
d="M252 -113l57 409q-107 0 -161 60t-43 141q12 85 81 148.5t176 63.5h212l-115 -822h-21l113 804h-164l-113 -804h-22z" />
    <glyph glyph-name="periodcentered" unicode="&#xb7;" horiz-adv-x="260" 
d="M135 318q2 16 15.5 27.5t29.5 11.5t25.5 -11.5t7.5 -27.5t-15 -27.5t-29 -11.5t-26 11.5t-8 27.5z" />
    <glyph glyph-name="cedilla" unicode="&#xb8;" horiz-adv-x="244" 
d="M133 2l-37 -46q70 7 83 -34q10 -33 -21 -63q-30 -28 -76 -26q-33 2 -55 14l4 12q21 -9 53 -9q50 0 70 34q17 29 -9 47q-16 12 -45 12l-37 -4l52 63h18z" />
    <glyph glyph-name="onesuperior" unicode="&#xb9;" horiz-adv-x="282" 
d="M205 300l54 387l-90 -90l-13 13l100 98h27l-57 -408h-21z" />
    <glyph glyph-name="ordmasculine" unicode="&#xba;" horiz-adv-x="364" 
d="M230 367q-55 0 -91.5 28.5t-29.5 79.5l18 128q7 51 51.5 79.5t99.5 28.5t91.5 -28.5t29.5 -79.5l-18 -128q-7 -51 -51.5 -79.5t-99.5 -28.5zM147 600l-17 -122q-7 -47 24.5 -69.5t78.5 -22.5t84.5 22.5t44.5 69.5l17 122q6 47 -25 69.5t-78 22.5t-85 -22.5t-44 -69.5z
" />
    <glyph glyph-name="guillemotright" unicode="&#xbb;" horiz-adv-x="385" 
d="M277 474l97 -179l-147 -181l-17 13l140 168q-79 144 -91 168zM155 474l97 -179l-147 -181q-9 6 -14 11q-2 2 -3 2l140 168q-79 144 -91 168z" />
    <glyph glyph-name="onequarter" unicode="&#xbc;" horiz-adv-x="668" 
d="M80 -2l540 720l7 -4l8 -6l-541 -719zM637 413l-41 -290h40l-3 -17h-40l-14 -106h-19l14 106h-223l-9 18l270 289h25zM363 122l214 1l37 267zM192 300l54 387l-90 -90l-13 13l100 98h27l-57 -408h-21z" />
    <glyph glyph-name="onehalf" unicode="&#xbd;" horiz-adv-x="756" 
d="M102 -2l540 720l7 -4l8 -6l-541 -719zM201 300l54 387l-90 -90l-13 13l100 98h27l-57 -408h-21zM645 204l-207 -185h234l-2 -19h-258l-1 2l-3 14l224 200q66 59 57 110q-10 33 -36.5 50t-61.5 17q-67 0 -108 -50l-15 6h1l-3 2q48 61 127 61q42 0 74 -19.5t42 -56.5l-1 1
q9 -37 -10.5 -72.5t-52.5 -60.5z" />
    <glyph glyph-name="threequarters" unicode="&#xbe;" horiz-adv-x="729" 
d="M158 -1l539 719l6 -4l8 -6q-91 -120 -270 -358.5t-270 -359.5zM676 413l-41 -290h40l-3 -17h-40l-14 -106h-19l14 106h-223l-9 18l270 289h25zM402 122l214 1l37 267zM317 526q33 -11 45.5 -39.5t7.5 -62.5q-8 -55 -57 -86t-106 -28q-37 2 -68 19.5t-42 47.5l20 7
q23 -51 95 -55q45 -3 88.5 23t49.5 72q7 48 -19 71t-73 21h-33l2 17h33q47 0 72 21q24 20 28 52t-12 53q-27 34 -78 34q-67 0 -106 -45q-6 3 -13 10q44 48 110.5 52.5t102.5 -38.5q21 -23 16 -63.5t-34 -65.5q-7 -6 -29 -17z" />
    <glyph glyph-name="questiondown" unicode="&#xbf;" horiz-adv-x="463" 
d="M390 -102l13 -15q-81 -69 -176 -69q-85 0 -140 50t-42 138q13 90 77.5 142t156.5 61q10 54 16.5 93.5t10 63.5t5.5 35h18l-23 -210q-89 -6 -158.5 -56t-78.5 -130q-10 -78 39 -120t125 -42q37 0 80.5 16.5t76.5 42.5zM328 454q-12 0 -19 9t-5 22q1 13 11 21.5t22 8.5
q13 0 20.5 -8.5t6.5 -21.5q-2 -13 -12.5 -22t-23.5 -9z" />
    <glyph glyph-name="Agrave" unicode="&#xc0;" horiz-adv-x="619" 
d="M26 0l358 715h47q28 -132 83 -375t76 -340h-27l-58 253h-327l-125 -253h-27zM409 703h-6l-212 -425h310zM389 861l45 -103h-25l-59 103h39z" />
    <glyph glyph-name="Aacute" unicode="&#xc1;" horiz-adv-x="619" 
d="M26 0l358 715h47q28 -132 83 -375t76 -340h-27l-58 253h-327l-125 -253h-27zM409 703h-6l-212 -425h310zM393 755l71 119h39l-88 -119h-22z" />
    <glyph glyph-name="Acircumflex" unicode="&#xc2;" horiz-adv-x="619" 
d="M26 0l358 715h47q28 -132 83 -375t76 -340h-27l-58 253h-327l-125 -253h-27zM409 703h-6l-212 -425h310zM303 741l102 102h37l74 -102h-23l-72 89l-94 -89h-24z" />
    <glyph glyph-name="Atilde" unicode="&#xc3;" horiz-adv-x="619" 
d="M26 0l358 715h47q28 -132 83 -375t76 -340h-27l-58 253h-327l-125 -253h-27zM409 703h-6l-212 -425h310zM332 772l-12 6q19 40 60 40q15 0 41 -13.5t41 -13.5q24 0 41 21l13 -5q-10 -16 -27 -28t-30 -12q-15 0 -43 15t-43 15q-23 0 -41 -25z" />
    <glyph glyph-name="Adieresis" unicode="&#xc4;" horiz-adv-x="619" 
d="M26 0l358 715h47q28 -132 83 -375t76 -340h-27l-58 253h-327l-125 -253h-27zM409 703h-6l-212 -425h310zM482 779q2 10 9.5 17t17.5 7t16 -7t5 -17q-2 -10 -9.5 -17t-17.5 -7t-16 7t-5 17zM302 779q2 10 9.5 17t17.5 7t16 -7t5 -17q-2 -10 -9.5 -17t-17.5 -7t-16 7t-5 17
z" />
    <glyph glyph-name="Aring" unicode="&#xc5;" horiz-adv-x="619" 
d="M26 0l358 715h47q28 -132 83 -375t76 -340h-27l-58 253h-327l-125 -253h-27zM409 703h-6l-212 -425h310zM343 813q5 37 30.5 57.5t58.5 20.5t50.5 -23.5t13.5 -55.5q-5 -30 -30.5 -53.5t-55.5 -23.5q-33 0 -52.5 21.5t-14.5 56.5zM475 813q3 23 -10.5 40t-36.5 17
q-24 0 -41 -15.5t-21 -42.5q-4 -23 9.5 -39.5t36.5 -16.5t41.5 17t21.5 40z" />
    <glyph glyph-name="AE" unicode="&#xc6;" horiz-adv-x="748" 
d="M1 0l450 708h363l-3 -24h-304l-46 -328h273l-4 -24h-273l-43 -310h304l-3 -22h-327l35 253h-231q-44 -69 -82 -127t-54.5 -84t-26.5 -42h-28zM426 276l58 411l-20 -1l-258 -410h220z" />
    <glyph glyph-name="Ccedilla" unicode="&#xc7;" horiz-adv-x="576" 
d="M300 -4l-19 -25q70 7 82 -34q11 -33 -22 -64q-31 -28 -76 -26q-33 2 -55 14l5 14q21 -9 53 -9q51 0 70 33q15 28 -10 45q-16 11 -45 11l-37 -2l36 44q-90 7 -147 59t-45 138l45 322q13 92 95.5 145t183.5 53q70 0 126 -26.5t80 -75.5l-25 -16q-20 44 -72.5 69t-115.5 25
q-90 0 -163 -46t-84 -128l-45 -322q-12 -82 48 -127.5t150 -45.5q63 0 121.5 23t92.5 66q3 -3 20 -11q-37 -49 -102 -76t-135 -27h-10z" />
    <glyph glyph-name="Egrave" unicode="&#xc8;" horiz-adv-x="572" 
d="M616 708l-4 -25h-396l-44 -317h366l-4 -27h-366l-44 -314h396l-3 -25h-421l99 708h421zM387 851l46 -103h-25l-60 103h39z" />
    <glyph glyph-name="Eacute" unicode="&#xc9;" horiz-adv-x="572" 
d="M616 708l-4 -25h-396l-44 -317h366l-4 -27h-366l-44 -314h396l-3 -25h-421l99 708h421zM392 752l72 119h39l-89 -119h-22z" />
    <glyph glyph-name="Ecircumflex" unicode="&#xca;" horiz-adv-x="572" 
d="M616 708l-4 -25h-396l-44 -317h366l-4 -27h-366l-44 -314h396l-3 -25h-421l99 708h421zM313 749l102 102h37l74 -102h-24l-71 88l-93 -88h-25z" />
    <glyph glyph-name="Edieresis" unicode="&#xcb;" horiz-adv-x="572" 
d="M616 708l-4 -25h-396l-44 -317h366l-4 -27h-366l-44 -314h396l-3 -25h-421l99 708h421zM486 780q2 10 9.5 17t17.5 7t16 -7t5 -17q-2 -10 -9.5 -17t-17.5 -7t-16 7t-5 17zM306 780q2 10 9.5 17t17.5 7t16 -7t5 -17q-2 -10 -9.5 -17t-17.5 -7t-16 7t-5 17z" />
    <glyph glyph-name="Igrave" unicode="&#xcc;" horiz-adv-x="232" 
d="M97 0l99 708h25l-99 -708h-25zM190 858l46 -103h-25l-60 103h39z" />
    <glyph glyph-name="Iacute" unicode="&#xcd;" horiz-adv-x="232" 
d="M97 0l99 708h25l-99 -708h-25zM193 754l72 119h39l-89 -119h-22z" />
    <glyph glyph-name="Icircumflex" unicode="&#xce;" horiz-adv-x="232" 
d="M97 0l99 708h25l-99 -708h-25zM107 747l103 102h37l73 -102h-25l-69 87l-93 -87h-26z" />
    <glyph glyph-name="Idieresis" unicode="&#xcf;" horiz-adv-x="232" 
d="M97 0l99 708h25l-99 -708h-25zM289 805q1 10 9 17t18 7t16 -7t5 -17t-9.5 -17t-18.5 -7t-16 7t-4 17zM109 805q1 10 9 17t18 7t16 -7t5 -17t-9.5 -17t-18.5 -7t-16 7t-4 17z" />
    <glyph glyph-name="Eth" unicode="&#xd0;" horiz-adv-x="613" 
d="M73 340l3 22h63l49 346h219q101 0 167 -52.5t53 -147.5l-44 -309q-13 -94 -93.5 -146.5t-181.5 -52.5h-219l47 340h-63zM117 25h194q58 0 110 18.5t90.5 59t46.5 96.5l44 309q11 83 -48.5 129t-150.5 46h-194l-45 -321h125l-3 -22h-125z" />
    <glyph glyph-name="Ntilde" unicode="&#xd1;" horiz-adv-x="689" 
d="M95 0l99 708h39l325 -684l96 684h25l-99 -708h-43l-320 676l-96 -676h-26zM350 754l-14 7q23 44 69 44q17 0 46 -15.5t46 -15.5q27 0 47 24l15 -5q-11 -18 -30 -31.5t-34 -13.5q-17 0 -49 16.5t-50 16.5q-25 0 -46 -27z" />
    <glyph glyph-name="Ograve" unicode="&#xd2;" horiz-adv-x="682" 
d="M104 196l45 317q13 94 98.5 147t192.5 53t178 -53t58 -147l-45 -317q-13 -94 -99 -147.5t-193 -53.5t-177.5 53.5t-57.5 147.5zM174 513l-45 -317q-12 -84 52 -130t161 -46t174 46t90 130l45 317q12 87 -52.5 131.5t-163.5 44.5q-98 -1 -173.5 -45.5t-87.5 -130.5z
M430 854l45 -103h-25l-59 103h39z" />
    <glyph glyph-name="Oacute" unicode="&#xd3;" horiz-adv-x="682" 
d="M104 196l45 317q13 94 98.5 147t192.5 53t178 -53t58 -147l-45 -317q-13 -94 -99 -147.5t-193 -53.5t-177.5 53.5t-57.5 147.5zM174 513l-45 -317q-12 -84 52 -130t161 -46t174 46t90 130l45 317q12 87 -52.5 131.5t-163.5 44.5q-98 -1 -173.5 -45.5t-87.5 -130.5z
M428 755l71 119h39l-88 -119h-22z" />
    <glyph glyph-name="Ocircumflex" unicode="&#xd4;" horiz-adv-x="682" 
d="M338 749l102 88h37l77 -88h-23l-74 77l-94 -77h-25zM104 196l45 317q13 94 98.5 147t192.5 53t178 -53t58 -147l-45 -317q-13 -94 -99 -147.5t-193 -53.5t-177.5 53.5t-57.5 147.5zM174 513l-45 -317q-12 -84 52 -130t161 -46t174 46t90 130l45 317q12 87 -52.5 131.5
t-163.5 44.5q-98 -1 -173.5 -45.5t-87.5 -130.5z" />
    <glyph glyph-name="Otilde" unicode="&#xd5;" horiz-adv-x="682" 
d="M104 196l45 317q13 94 98.5 147t192.5 53t178 -53t58 -147l-45 -317q-13 -94 -99 -147.5t-193 -53.5t-177.5 53.5t-57.5 147.5zM174 513l-45 -317q-12 -84 52 -130t161 -46t174 46t90 130l45 317q12 87 -52.5 131.5t-163.5 44.5q-98 -1 -173.5 -45.5t-87.5 -130.5z
M362 764l-13 6q9 18 26.5 28t35.5 10q16 0 43 -13.5t43 -13.5q25 0 42 21l15 -5q-10 -15 -27.5 -26.5t-31.5 -11.5q-17 0 -46 14t-45 14q-24 0 -42 -23z" />
    <glyph glyph-name="Odieresis" unicode="&#xd6;" horiz-adv-x="682" 
d="M104 196l45 317q13 94 98.5 147t192.5 53t178 -53t58 -147l-45 -317q-13 -94 -99 -147.5t-193 -53.5t-177.5 53.5t-57.5 147.5zM174 513l-45 -317q-12 -84 52 -130t161 -46t174 46t90 130l45 317q12 87 -52.5 131.5t-163.5 44.5q-98 -1 -173.5 -45.5t-87.5 -130.5z
M516 776q1 10 9 17t18 7t16 -7t5 -17t-9.5 -17t-18.5 -7t-16 7t-4 17zM336 776q1 10 9 17t18 7t16 -7t5 -17t-9.5 -17t-18.5 -7t-16 7t-4 17z" />
    <glyph glyph-name="multiply" unicode="&#xd7;" horiz-adv-x="547" 
d="M161 501l19 16l140 -163l182 159l14 -16l-182 -159l135 -157l-18 -17l-135 157l-184 -161l-14 17l183 160z" />
    <glyph glyph-name="Oslash" unicode="&#xd8;" horiz-adv-x="682" 
d="M104 199l44 311q13 94 98.5 147t192.5 53q68 0 120 -21q7 12 20.5 37t18.5 34q11 -3 18 -7l-39 -71q113 -63 98 -172l-44 -311q-13 -94 -99 -147.5t-193 -53.5q-48 0 -117 21q-6 -12 -20.5 -38t-19.5 -36l-14 4q-3 0 -5 1l40 76q-114 61 -99 173zM172 510l-44 -311
q-13 -91 88 -152l332 622q-42 17 -113 17q-63 -1 -117.5 -18.5t-96 -58.5t-49.5 -99zM608 199l44 311q13 89 -87 151l-331 -620q67 -19 109 -19q96 0 174.5 47t90.5 130z" />
    <glyph glyph-name="Ugrave" unicode="&#xd9;" horiz-adv-x="684" 
d="M120 199l72 509h25l-72 -509q-11 -85 48 -132.5t150 -47.5q58 0 110.5 19.5t91.5 61.5t47 99l72 509h25l-72 -509q-9 -65 -52.5 -112.5t-102 -69.5t-122.5 -22q-101 0 -167 54t-53 150zM433 855l45 -103h-25l-59 103h39z" />
    <glyph glyph-name="Uacute" unicode="&#xda;" horiz-adv-x="684" 
d="M120 199l72 509h25l-72 -509q-11 -85 48 -132.5t150 -47.5q58 0 110.5 19.5t91.5 61.5t47 99l72 509h25l-72 -509q-9 -65 -52.5 -112.5t-102 -69.5t-122.5 -22q-101 0 -167 54t-53 150zM414 753l72 119h39l-89 -119h-22z" />
    <glyph glyph-name="Ucircumflex" unicode="&#xdb;" horiz-adv-x="684" 
d="M120 199l72 509h25l-72 -509q-11 -85 48 -132.5t150 -47.5q58 0 110.5 19.5t91.5 61.5t47 99l72 509h25l-72 -509q-9 -65 -52.5 -112.5t-102 -69.5t-122.5 -22q-101 0 -167 54t-53 150zM340 753l103 102h37l73 -102h-23l-71 89l-95 -89h-24z" />
    <glyph glyph-name="Udieresis" unicode="&#xdc;" horiz-adv-x="684" 
d="M120 199l72 509h25l-72 -509q-11 -85 48 -132.5t150 -47.5q58 0 110.5 19.5t91.5 61.5t47 99l72 509h25l-72 -509q-9 -65 -52.5 -112.5t-102 -69.5t-122.5 -22q-101 0 -167 54t-53 150zM514 775q1 10 9.5 17t18.5 7t16 -7t4 -17q-1 -10 -9 -17t-18 -7t-16 7t-5 17z
M334 775q1 10 9.5 17t18.5 7t16 -7t4 -17q-1 -10 -9 -17t-18 -7t-16 7t-5 17z" />
    <glyph glyph-name="Yacute" unicode="&#xdd;" horiz-adv-x="570" 
d="M613 708h31l-311 -427l-39 -281h-25l39 281l-182 427h30l169 -399zM366 743l72 119h39l-89 -119h-22z" />
    <glyph glyph-name="Thorn" unicode="&#xde;" horiz-adv-x="524" 
d="M208 708l-21 -151q75 10 112 10q126 0 187 -52.5t47 -149.5q-10 -72 -58.5 -118.5t-109 -63.5t-134.5 -17h-41q2 7 4 12.5t2.5 7.5t0.5 5h34q48 0 90 7.5t83.5 25.5t69 54t34.5 87q7 52 -10 88.5t-52.5 54.5t-72.5 25.5t-81 7.5q-60 0 -109 -9l-74 -532h-25l99 708h25z
" />
    <glyph glyph-name="germandbls" unicode="&#xdf;" horiz-adv-x="565" 
d="M280 26q87 -2 161 48.5t86 133.5q12 86 -36 129t-135 42h-116l3 22h116q70 0 122 39.5t62 112.5q10 74 -38 110t-123 36q-74 0 -134 -39t-70 -113l-76 -547h-24l76 547q11 80 79.5 127.5t151.5 47.5q84 0 139 -45t44 -124q-16 -121 -125 -160q130 -41 110 -186
q-16 -95 -97.5 -152t-177.5 -55q-50 2 -100 24q0 3 5 26q55 -23 97 -24z" />
    <glyph glyph-name="agrave" unicode="&#xe0;" 
d="M420 0h-21l7 62q-69 -69 -177 -69q-70 0 -115 37.5t-35 111.5l33 231q8 55 41.5 91t77 50t96.5 14q86 0 161 -34zM407 84l3 4l55 390q-60 30 -136 30t-131.5 -32.5t-64.5 -101.5l-33 -232q-9 -65 29 -97t102 -32q48 0 96 19t80 52zM324 687l46 -103h-25l-60 103h39z" />
    <glyph glyph-name="aacute" unicode="&#xe1;" 
d="M420 0h-21l7 62q-69 -69 -177 -69q-70 0 -115 37.5t-35 111.5l33 231q8 55 41.5 91t77 50t96.5 14q86 0 161 -34zM407 84l3 4l55 390q-60 30 -136 30t-131.5 -32.5t-64.5 -101.5l-33 -232q-9 -65 29 -97t102 -32q48 0 96 19t80 52zM317 580l72 119h39l-89 -119h-22z" />
    <glyph glyph-name="acircumflex" unicode="&#xe2;" 
d="M420 0h-21l7 62q-69 -69 -177 -69q-70 0 -115 37.5t-35 111.5l33 231q8 55 41.5 91t77 50t96.5 14q86 0 161 -34zM407 84l3 4l55 390q-60 30 -136 30t-131.5 -32.5t-64.5 -101.5l-33 -232q-9 -65 29 -97t102 -32q48 0 96 19t80 52zM228 578l102 102h37l74 -102h-23
l-72 89l-94 -89h-24z" />
    <glyph glyph-name="atilde" unicode="&#xe3;" 
d="M420 0h-21l7 62q-69 -69 -177 -69q-70 0 -115 37.5t-35 111.5l33 231q8 55 41.5 91t77 50t96.5 14q86 0 161 -34zM407 84l3 4l55 390q-60 30 -136 30t-131.5 -32.5t-64.5 -101.5l-33 -232q-9 -65 29 -97t102 -32q48 0 96 19t80 52zM251 611l-14 6q21 39 67 39
q16 0 45 -13.5t45 -13.5q27 0 45 21l14 -5q-10 -15 -28 -27t-33 -12q-17 0 -48 14.5t-48 14.5q-24 0 -45 -24z" />
    <glyph glyph-name="adieresis" unicode="&#xe4;" 
d="M420 0h-21l7 62q-69 -69 -177 -69q-70 0 -115 37.5t-35 111.5l33 231q8 55 41.5 91t77 50t96.5 14q86 0 161 -34zM407 84l3 4l55 390q-60 30 -136 30t-131.5 -32.5t-64.5 -101.5l-33 -232q-9 -65 29 -97t102 -32q48 0 96 19t80 52zM412 628q2 10 9.5 17t17.5 7t16 -7
t5 -17t-9.5 -17t-18.5 -7t-16 7t-4 17zM232 628q2 10 9.5 17t17.5 7t16 -7t5 -17t-9.5 -17t-18.5 -7t-16 7t-4 17z" />
    <glyph glyph-name="aring" unicode="&#xe5;" 
d="M420 0h-21l7 62q-69 -69 -177 -69q-70 0 -115 37.5t-35 111.5l33 231q8 55 41.5 91t77 50t96.5 14q86 0 161 -34zM407 84l3 4l55 390q-60 30 -136 30t-131.5 -32.5t-64.5 -101.5l-33 -232q-9 -65 29 -97t102 -32q48 0 96 19t80 52zM266 640q5 35 30.5 54.5t60.5 19.5
q34 0 52.5 -22.5t13.5 -52.5q-4 -29 -30 -51.5t-57 -22.5q-34 0 -54 20.5t-16 54.5zM402 640q4 22 -11 38.5t-39 16.5q-25 0 -42.5 -15t-21.5 -41q-3 -23 11.5 -39t37.5 -16q24 0 43 17t22 39z" />
    <glyph glyph-name="ae" unicode="&#xe6;" horiz-adv-x="818" 
d="M419 0h-19l7 62q-69 -69 -178 -69q-70 0 -115 37.5t-35 111.5l33 231q8 55 41.5 91t77 50t96.5 14q49 0 99 -14.5t82 -42.5q58 52 144 52q73 0 119.5 -40t35.5 -116t-68.5 -117t-132.5 -41q-85 0 -153 34l-15 -106q-4 -41 17 -69.5t53 -40t72 -11.5q98 0 148 63l16 -10
q-29 -35 -74 -54.5t-93 -19.5q-51 0 -92 19t-58 55zM408 84l3 4l39 275q7 55 42 93q-25 25 -75 38.5t-92 13.5q-75 0 -129 -32.5t-63 -101.5l-33 -232q-9 -65 29 -97t102 -32q48 0 97 19t80 52zM471 371l-15 -107q76 -35 153 -35q68 0 117.5 34.5t60.5 103.5q9 65 -32 101
t-106 36q-64 0 -115.5 -35t-62.5 -98z" />
    <glyph glyph-name="ccedilla" unicode="&#xe7;" horiz-adv-x="434" 
d="M239 -7l-24 -29q70 7 83 -34q10 -33 -21 -63q-30 -28 -76 -26q-33 2 -55 14l4 12q21 -9 54 -9q50 0 70 34q17 29 -9 47q-16 12 -45 12l-38 -4l39 47q-68 4 -111 43t-33 107l32 227q10 71 68.5 111t131.5 40q105 0 143 -67l-18 -11q-32 56 -128 56q-65 0 -116 -33t-59 -94
l-32 -229q-9 -63 32.5 -96t106.5 -33q47 0 89.5 19t65.5 55q5 -2 10.5 -5t9.5 -5q-28 -40 -75 -62.5t-99 -23.5z" />
    <glyph glyph-name="egrave" unicode="&#xe8;" horiz-adv-x="491" 
d="M121 243l-14 -99q-9 -64 33.5 -95.5t107.5 -31.5q99 0 148 62l16 -10q-29 -35 -74 -54.5t-93 -19.5q-73 0 -120.5 39.5t-37.5 110.5l31 218q11 76 70 118t132 42t119.5 -40t35.5 -116t-68.5 -117t-132.5 -41q-85 0 -153 34zM138 364l-14 -100q76 -35 153 -35
q68 0 117.5 34.5t60.5 103.5q9 65 -32 101t-106 36q-66 0 -118 -36.5t-61 -103.5zM318 682l46 -103h-25l-60 103h39z" />
    <glyph glyph-name="eacute" unicode="&#xe9;" horiz-adv-x="491" 
d="M121 243l-14 -99q-9 -64 33.5 -95.5t107.5 -31.5q99 0 148 62l16 -10q-29 -35 -74 -54.5t-93 -19.5q-73 0 -120.5 39.5t-37.5 110.5l31 218q11 76 70 118t132 42t119.5 -40t35.5 -116t-68.5 -117t-132.5 -41q-85 0 -153 34zM138 364l-14 -100q76 -35 153 -35
q68 0 117.5 34.5t60.5 103.5q9 65 -32 101t-106 36q-66 0 -118 -36.5t-61 -103.5zM304 569l72 119h39l-89 -119h-22z" />
    <glyph glyph-name="ecircumflex" unicode="&#xea;" horiz-adv-x="491" 
d="M121 243l-14 -99q-9 -64 33.5 -95.5t107.5 -31.5q99 0 148 62l16 -10q-29 -35 -74 -54.5t-93 -19.5q-73 0 -120.5 39.5t-37.5 110.5l31 218q11 76 70 118t132 42t119.5 -40t35.5 -116t-68.5 -117t-132.5 -41q-85 0 -153 34zM138 364l-14 -100q76 -35 153 -35
q68 0 117.5 34.5t60.5 103.5q9 65 -32 101t-106 36q-66 0 -118 -36.5t-61 -103.5zM219 568l103 102h37l73 -102h-23l-71 89l-95 -89h-24z" />
    <glyph glyph-name="edieresis" unicode="&#xeb;" horiz-adv-x="491" 
d="M121 243l-14 -99q-9 -64 33.5 -95.5t107.5 -31.5q99 0 148 62l16 -10q-29 -35 -74 -54.5t-93 -19.5q-73 0 -120.5 39.5t-37.5 110.5l31 218q11 76 70 118t132 42t119.5 -40t35.5 -116t-68.5 -117t-132.5 -41q-85 0 -153 34zM138 364l-14 -100q76 -35 153 -35
q68 0 117.5 34.5t60.5 103.5q9 65 -32 101t-106 36q-66 0 -118 -36.5t-61 -103.5zM400 630q2 10 9.5 17t17.5 7t16 -7t5 -17q-2 -10 -9.5 -17t-17.5 -7t-16 7t-5 17zM220 630q2 10 9.5 17t17.5 7t16 -7t5 -17q-2 -10 -9.5 -17t-17.5 -7t-16 7t-5 17z" />
    <glyph glyph-name="igrave" unicode="&#xec;" horiz-adv-x="221" 
d="M96 0l72 518h25l-72 -518h-25zM166 700l45 -103h-25l-59 103h39z" />
    <glyph glyph-name="iacute" unicode="&#xed;" horiz-adv-x="221" 
d="M96 0l72 518h26l-72 -518h-26zM178 583l72 119h39l-89 -119h-22z" />
    <glyph glyph-name="icircumflex" unicode="&#xee;" horiz-adv-x="240" 
d="M105 0l72 518h25l-72 -518h-25zM115 595l91 96h33l62 -96h-20l-63 82q-14 -14 -43.5 -44t-37.5 -38h-22z" />
    <glyph glyph-name="idieresis" unicode="&#xef;" horiz-adv-x="239" 
d="M252 645q2 10 10 17.5t18 7.5t16.5 -7.5t4.5 -17.5q-2 -11 -10 -18t-18 -7t-16.5 7t-4.5 18zM122 645q2 10 10 17.5t19 7.5q9 0 15 -7.5t5 -17.5t-9.5 -17.5t-17.5 -7.5q-11 0 -17.5 7t-4.5 18zM107 0l72 517h23l-72 -517h-23z" />
    <glyph glyph-name="eth" unicode="&#xf0;" horiz-adv-x="520" 
d="M216 639l-14 15q37 33 88.5 46t100.5 4q9 19 30 61l16 -5l-30 -59q53 -17 82.5 -54.5t22.5 -90.5l-76 -539q-106 -31 -185 -31q-70 1 -116.5 42t-36.5 111l24 173q10 70 69.5 112t130.5 41q78 0 151 -38l18 129q12 88 -94 124q-5 -14 -18 -42t-18 -39l-16 5l36 79
q-101 15 -165 -44zM418 38l51 365q-79 37 -153 37q-62 -1 -112 -33.5t-59 -93.5l-24 -174q-9 -62 31 -95.5t103 -33.5q94 0 163 28z" />
    <glyph glyph-name="ntilde" unicode="&#xf1;" horiz-adv-x="532" 
d="M109 0h-22l69 495q92 31 186 31q73 -2 118.5 -40t35.5 -111l-52 -375h-22l52 375q9 62 -32 95t-103 33q-95 0 -164 -27zM261 581l-13 6q20 39 62 39q16 0 43.5 -13.5t43.5 -13.5q25 0 42 21l14 -5q-10 -15 -27.5 -27t-31.5 -12q-17 0 -45.5 14.5t-44.5 14.5
q-25 0 -43 -24z" />
    <glyph glyph-name="ograve" unicode="&#xf2;" horiz-adv-x="503" 
d="M322 503q-64 0 -115.5 -32.5t-60.5 -96.5l-32 -229q-9 -64 33.5 -97t106.5 -33q63 0 114.5 33t60.5 97l32 229q9 63 -33.5 96t-105.5 33zM92 145l32 229q10 71 69 111t132 41q73 -1 120.5 -41t37.5 -111l-32 -229q-10 -71 -68.5 -111t-131.5 -41q-73 1 -121 41t-38 111z
M315 672l45 -103h-25l-59 103h39z" />
    <glyph glyph-name="oacute" unicode="&#xf3;" horiz-adv-x="503" 
d="M322 503q-64 0 -115.5 -32.5t-60.5 -96.5l-32 -229q-9 -64 33.5 -97t106.5 -33q63 0 114.5 33t60.5 97l32 229q9 63 -33.5 96t-105.5 33zM92 145l32 229q10 71 69 111t132 41q73 -1 120.5 -41t37.5 -111l-32 -229q-10 -71 -68.5 -111t-131.5 -41q-73 1 -121 41t-38 111z
M315 563l71 119h39l-88 -119h-22z" />
    <glyph glyph-name="ocircumflex" unicode="&#xf4;" horiz-adv-x="503" 
d="M322 503q-64 0 -115.5 -32.5t-60.5 -96.5l-32 -229q-9 -64 33.5 -97t106.5 -33q63 0 114.5 33t60.5 97l32 229q9 63 -33.5 96t-105.5 33zM92 145l32 229q10 71 69 111t132 41q73 -1 120.5 -41t37.5 -111l-32 -229q-10 -71 -68.5 -111t-131.5 -41q-73 1 -121 41t-38 111z
M225 561l100 93h37l75 -93h-23l-72 81l-93 -81h-24z" />
    <glyph glyph-name="otilde" unicode="&#xf5;" horiz-adv-x="503" 
d="M322 503q-64 0 -115.5 -32.5t-60.5 -96.5l-32 -229q-9 -64 33.5 -97t106.5 -33q63 0 114.5 33t60.5 97l32 229q9 63 -33.5 96t-105.5 33zM92 145l32 229q10 71 69 111t132 41q73 -1 120.5 -41t37.5 -111l-32 -229q-10 -71 -68.5 -111t-131.5 -41q-73 1 -121 41t-38 111z
M249 592l-13 6q18 40 60 40q15 0 40.5 -13.5t40.5 -13.5q24 0 41 21l13 -5q-9 -15 -26 -26.5t-30 -11.5q-15 0 -43 14t-43 14q-22 0 -40 -25z" />
    <glyph glyph-name="odieresis" unicode="&#xf6;" horiz-adv-x="503" 
d="M322 503q-64 0 -115.5 -32.5t-60.5 -96.5l-32 -229q-9 -64 33.5 -97t106.5 -33q63 0 114.5 33t60.5 97l32 229q9 63 -33.5 96t-105.5 33zM92 145l32 229q10 71 69 111t132 41q73 -1 120.5 -41t37.5 -111l-32 -229q-10 -71 -68.5 -111t-131.5 -41q-73 1 -121 41t-38 111z
M403 604q1 10 9.5 17t18.5 7t16 -7t4 -17q-1 -10 -9 -17t-18 -7t-16 7t-5 17zM223 604q1 10 9.5 17t18.5 7t16 -7t4 -17q-1 -10 -9 -17t-18 -7t-16 7t-5 17z" />
    <glyph glyph-name="divide" unicode="&#xf7;" horiz-adv-x="528" 
d="M99 320l4 24h419l-4 -24h-419zM262 174q3 28 34 30q13 0 20.5 -8.5t5.5 -21.5q-1 -13 -11 -21.5t-23 -8.5t-20.5 8.5t-5.5 21.5zM305 479q3 28 34 30q13 0 20.5 -8.5t5.5 -21.5t-11.5 -21.5t-22.5 -8.5t-20.5 8.5t-5.5 21.5z" />
    <glyph glyph-name="oslash" unicode="&#xf8;" horiz-adv-x="498" 
d="M92 145l32 228q10 71 69 111t132 41q38 -2 82 -17q2 3 16.5 32t22.5 43q4 -2 7 -2.5t7 -1t7 -1.5l-42 -76q70 -48 58 -129l-32 -228q-10 -71 -68.5 -111t-131.5 -41q-46 2 -85 16q-5 -8 -19 -32t-20 -35l-17 6l40 69q-69 50 -58 128zM254 15q63 0 114.5 33t60.5 97
l32 228q8 59 -48 109l-235 -453q44 -14 76 -14zM322 502q-64 0 -115.5 -32.5t-60.5 -96.5l-32 -228q-9 -59 46 -109l235 453q-45 13 -73 13z" />
    <glyph glyph-name="ugrave" unicode="&#xf9;" horiz-adv-x="517" 
d="M488 519h22l-69 -494q-94 -32 -186 -32q-72 2 -118 41.5t-36 109.5l52 375h22l-52 -375q-8 -60 34 -94.5t101 -34.5q92 0 164 29zM319 667l44 -103h-23l-60 103h39z" />
    <glyph glyph-name="uacute" unicode="&#xfa;" horiz-adv-x="517" 
d="M488 519h22l-69 -494q-94 -32 -186 -32q-72 2 -118 41.5t-36 109.5l52 375h22l-52 -375q-8 -60 34 -94.5t101 -34.5q92 0 164 29zM311 560l72 119h39l-89 -119h-22z" />
    <glyph glyph-name="ucircumflex" unicode="&#xfb;" horiz-adv-x="517" 
d="M488 519h22l-69 -494q-94 -32 -186 -32q-72 2 -118 41.5t-36 109.5l52 375h22l-52 -375q-8 -60 34 -94.5t101 -34.5q92 0 164 29zM231 563l102 102h37l74 -102h-23l-72 89l-94 -89h-24z" />
    <glyph glyph-name="udieresis" unicode="&#xfc;" horiz-adv-x="517" 
d="M488 519h22l-69 -494q-94 -32 -186 -32q-72 2 -118 41.5t-36 109.5l52 375h22l-52 -375q-8 -60 34 -94.5t101 -34.5q92 0 164 29zM412 616q2 10 9.5 17t17.5 7t16 -7t5 -17q-2 -10 -9.5 -17t-17.5 -7t-16 7t-5 17zM232 616q2 10 9.5 17t17.5 7t16 -7t5 -17
q-2 -10 -9.5 -17t-17.5 -7t-16 7t-5 17z" />
    <glyph glyph-name="yacute" unicode="&#xfd;" horiz-adv-x="519" 
d="M486 518h22l-76 -541q-10 -71 -67 -108.5t-129 -37.5q-92 0 -141 48l19 17q52 -43 126 -43q37 0 72.5 12.5t63.5 41.5t34 69l8 59q-87 -40 -160 -40q-72 -1 -120.5 39.5t-38.5 110.5l52 373h23l-52 -373q-9 -60 32 -93.5t105 -35.5q56 1 152 38l11 7zM308 560l72 119h39
l-89 -119h-22z" />
    <glyph glyph-name="thorn" unicode="&#xfe;" horiz-adv-x="516" 
d="M82 -179h-23l125 886h23l-29 -202q92 22 165 22q71 -1 118 -42t37 -112l-32 -229q-10 -71 -70 -113t-132 -41q-89 2 -153 34zM175 480l-61 -432q75 -35 155 -35q64 1 114.5 34.5t58.5 94.5l33 231q9 62 -31 96t-105 34q-95 0 -164 -23z" />
    <glyph glyph-name="ydieresis" unicode="&#xff;" horiz-adv-x="519" 
d="M486 518h22l-76 -541q-10 -71 -67 -108.5t-129 -37.5q-92 0 -141 48l19 17q52 -43 126 -43q37 0 72.5 12.5t63.5 41.5t34 69l8 59q-87 -40 -160 -40q-72 -1 -120.5 39.5t-38.5 110.5l52 373h23l-52 -373q-9 -60 32 -93.5t105 -35.5q56 1 152 38l11 7zM412 622
q2 10 9.5 17t17.5 7t16 -7t5 -17q-2 -10 -9.5 -17t-17.5 -7t-16 7t-5 17zM232 622q2 10 9.5 17t17.5 7t16 -7t5 -17q-2 -10 -9.5 -17t-17.5 -7t-16 7t-5 17z" />
    <glyph glyph-name="dotlessi" unicode="&#x131;" horiz-adv-x="221" 
d="M96 0l72 518h24l-72 -518h-24z" />
    <glyph glyph-name="Lslash" unicode="&#x141;" horiz-adv-x="483" 
d="M88 0l37 266q-8 -6 -28.5 -21t-27.5 -20l-9 16l69 52l58 416h22l-55 -390l127 95l8 -17l-138 -102l-38 -272h340l-3 -23h-362z" />
    <glyph glyph-name="lslash" unicode="&#x142;" horiz-adv-x="256" 
d="M227 20l-3 -22q-58 7 -85.5 40t-18.5 102l32 227q-37 -25 -68 -45l-7 17l78 52l44 311h22l-41 -294l68 45l5 -18l-76 -50l-35 -245q-15 -111 85 -120z" />
    <glyph glyph-name="OE" unicode="&#x152;" horiz-adv-x="921" 
d="M584 708h389l-3 -23h-365l-45 -320h334l-4 -24h-334l-44 -317h365l-3 -24h-389l6 44q-106 -51 -168 -50q-102 2 -171 60t-56 151l43 302q13 94 98 147.5t191 54.5q33 0 74.5 -13.5t74.5 -37.5zM494 68l81 573q-80 44 -149 43q-98 0 -174 -45.5t-88 -131.5l-43 -302
q-11 -84 52.5 -135t158.5 -51q62 0 162 49z" />
    <glyph glyph-name="oe" unicode="&#x153;" horiz-adv-x="829" 
d="M464 243l-14 -99l-1 -7q-6 -60 36.5 -90t105.5 -30q99 0 148 62l16 -10q-29 -35 -74 -54.5t-93 -19.5q-57 0 -101 24.5t-55 70.5q-25 -46 -75.5 -71t-106.5 -26q-73 1 -121 41t-38 111l32 229q10 71 69 111t132 41q58 -1 102 -27.5t54 -74.5q27 48 77 73.5t106 25.5
q73 0 119.5 -40t35.5 -116t-68.5 -117t-132.5 -41q-85 0 -153 34zM321 503q-64 0 -115.5 -32.5t-60.5 -96.5l-32 -229q-9 -64 33.5 -97t106.5 -33q63 0 114.5 33t60.5 97l32 229q9 63 -33.5 96t-105.5 33zM481 364l-14 -100q76 -35 153 -35q68 0 117.5 34.5t60.5 103.5
q9 65 -32 101t-106 36q-66 0 -118 -36.5t-61 -103.5z" />
    <glyph glyph-name="Scaron" unicode="&#x160;" horiz-adv-x="595" 
d="M173 542q-8 -38 3 -67t39.5 -48t62 -31t79.5 -22q24 -5 42.5 -9.5t41 -12t38.5 -16t33.5 -20t26.5 -25.5t18 -32t8 -39t-4 -48q-17 -81 -93.5 -128t-169.5 -47q-70 0 -128.5 28.5t-88.5 85.5l25 10q26 -48 79.5 -74t117.5 -26q80 0 145 38.5t86 112.5q4 19 4 35
t-3.5 29.5t-9 25t-15.5 21t-19.5 17t-24 14t-26.5 11t-29.5 9.5t-30.5 8.5t-32 7.5q-37 8 -63.5 15.5t-58 23t-49.5 34.5t-27 49.5t-2 69.5q14 83 87 127.5t165 44.5q157 0 205 -109l-25 -9q-20 46 -70.5 70t-113.5 24q-53 0 -97.5 -14.5t-79.5 -48.5t-46 -85zM521 843
l-102 -94h-32q-50 62 -73 94h27l64 -76l87 76h29z" />
    <glyph glyph-name="scaron" unicode="&#x161;" horiz-adv-x="422" 
d="M56 80l20 13q53 -80 148 -77q48 1 95 31t54 85q13 97 -117 123q-33 6 -57 14t-48 22.5t-35 39t-6 57.5q9 64 61.5 99t117.5 35q83 0 127 -49q-6 -5 -16 -15q-39 44 -115 44q-55 0 -99.5 -29.5t-54.5 -84.5q-4 -30 5 -50.5t35 -33t38.5 -16t45.5 -10.5q6 -2 8 -2
q147 -27 132 -144q-9 -62 -60 -99t-114 -39q-112 -3 -165 86zM406 633l-97 -84h-30q-37 41 -72 84h26l63 -68l82 68h28z" />
    <glyph glyph-name="Ydieresis" unicode="&#x178;" horiz-adv-x="570" 
d="M613 708h31l-311 -427l-39 -281h-25l39 281l-182 427h30l169 -399zM457 776q1 10 9 17t18 7t16 -7t5 -17t-9.5 -17t-18.5 -7t-16 7t-4 17zM277 776q1 10 9 17t18 7t16 -7t5 -17t-9.5 -17t-18.5 -7t-16 7t-4 17z" />
    <glyph glyph-name="Zcaron" unicode="&#x17d;" horiz-adv-x="547" 
d="M28 12l550 674h-435l3 22h460l7 -13l-549 -673h441l-3 -22h-465zM505 845l-102 -94h-32q-36 44 -73 94h27l65 -76l86 76h29z" />
    <glyph glyph-name="zcaron" unicode="&#x17e;" horiz-adv-x="431" 
d="M29 21l401 477h-317l3 20h335q3 -5 8 -17l-405 -480h334l-2 -21h-345zM414 634l-97 -85h-31q-35 40 -70 85h26l61 -69l83 69h28z" />
    <glyph glyph-name="florin" unicode="&#x192;" horiz-adv-x="378" 
d="M398 704l-9 -21q-25 9 -40 9q-42 0 -66 -27.5t-32 -67.5l-35 -195h113l-4 -20h-114l-74 -399q-15 -58 -43 -84t-83 -26l4 24q80 0 98 85l72 400h-111l5 20h111l36 194v-1q25 119 123 119q22 0 49 -10z" />
    <glyph glyph-name="circumflex" unicode="&#x2c6;" horiz-adv-x="280" 
d="M115 606l102 102h37l74 -102h-23l-72 89l-94 -89h-24z" />
    <glyph glyph-name="caron" unicode="&#x2c7;" horiz-adv-x="278" 
d="M335 708l-102 -94h-32q-36 44 -73 94h27l64 -76l87 76h29z" />
    <glyph glyph-name="uni02C9" unicode="&#x2c9;" horiz-adv-x="267" 
d="M352 701l-3 -22h-230l3 22h230z" />
    <glyph glyph-name="breve" unicode="&#x2d8;" horiz-adv-x="255" 
d="M295 708h23q-22 -51 -69 -69.5t-87.5 1.5t-44.5 68h23q6 -35 37.5 -49t66.5 0t51 49z" />
    <glyph glyph-name="dotaccent" unicode="&#x2d9;" horiz-adv-x="240" 
d="M184 677q1 14 12.5 24t25.5 10t23 -10t7 -24t-13.5 -24t-25.5 -10t-22.5 10t-6.5 24z" />
    <glyph glyph-name="ring" unicode="&#x2da;" horiz-adv-x="239" 
d="M132 635q5 37 30.5 57.5t58.5 20.5t50.5 -23.5t13.5 -55.5q-5 -30 -30.5 -53.5t-55.5 -23.5q-33 0 -52.5 21.5t-14.5 56.5zM264 635q3 23 -10.5 40t-36.5 17q-24 0 -41 -15.5t-21 -42.5q-4 -23 9.5 -39.5t36.5 -16.5t41.5 17t21.5 40z" />
    <glyph glyph-name="ogonek" unicode="&#x2db;" horiz-adv-x="229" 
d="M140 -108l4 -14q-31 -25 -70 -24.5t-52 28.5q-14 30 5.5 65t56.5 55h23q-59 -34 -67 -80q-7 -36 25 -45q29 -9 75 15z" />
    <glyph glyph-name="tilde" unicode="&#x2dc;" horiz-adv-x="271" 
d="M134 663l-14 6q20 39 66 39q16 0 45 -13.5t45 -13.5q27 0 45 21l14 -5q-9 -15 -27.5 -27t-33.5 -12q-17 0 -48 14.5t-48 14.5q-24 0 -44 -24z" />
    <glyph glyph-name="hungarumlaut" unicode="&#x2dd;" horiz-adv-x="239" 
d="M131 598l43 110h32l-59 -110h-16zM202 598l43 110h32l-60 -110h-15z" />
    <glyph glyph-name="uni03A9" unicode="&#x3a9;" horiz-adv-x="752" 
d="M255 37l-32 30q-58 53 -87 132.5t-15 178.5q20 144 125.5 235.5t241.5 91.5t209.5 -94.5t54.5 -228.5q-14 -103 -76.5 -194.5t-148.5 -150.5h190l-3 -22h-241l1 12q94 52 166 150.5t87 204.5q10 73 -13 140.5t-83.5 113.5t-146.5 46q-127 0 -223 -87t-115 -218
q-29 -211 156 -349l-1 -12h-243l3 21h194z" />
    <glyph glyph-name="uni03BC" unicode="&#x3bc;" horiz-adv-x="502" 
d="M506 518l-69 -518h-22l19 137q-30 -72 -84.5 -104.5t-114.5 -32.5q-111 0 -125 96l-42 -307h-22l102 729h23l-46 -328q-6 -43 -0.5 -78.5t33.5 -64t79 -28.5q77 0 133.5 55.5t71.5 156.5l40 287h24z" />
    <glyph glyph-name="pi" unicode="&#x3c0;" horiz-adv-x="532" 
d="M462 18l-2 -19q-50 0 -61 19t-2 88l55 387h-242l-69 -486h-21l69 486q-57 0 -113 -14l-1 19q43 16 113 16h371l-4 -21h-81q-8 -59 -27 -193t-28 -194q-9 -46 -2 -67t45 -21z" />
    <glyph glyph-name="endash" unicode="&#x2013;" horiz-adv-x="500" 
d="M76 288l3 23h430l-3 -23h-430z" />
    <glyph glyph-name="emdash" unicode="&#x2014;" horiz-adv-x="920" 
d="M66 318l-5 -37h876l5 37h-876zM72 311l-3 -23h862l3 23h-862zM53 274l7 51h890l-7 -51h-890z" />
    <glyph glyph-name="quoteleft" unicode="&#x2018;" horiz-adv-x="208" 
d="M248 708l-70 -176h-35l80 176h25z" />
    <glyph glyph-name="quoteright" unicode="&#x2019;" horiz-adv-x="228" 
d="M148 531l73 177h37l-88 -177h-22z" />
    <glyph glyph-name="quotesinglbase" unicode="&#x201a;" horiz-adv-x="237" 
d="M35 -121l74 154h38l-89 -154h-23z" />
    <glyph glyph-name="quotedblleft" unicode="&#x201c;" horiz-adv-x="324" 
d="M254 709l-72 -177h-36q11 24 40 83.5t45 93.5h23zM365 709l-72 -177h-36q11 24 40 83.5t45 93.5h23z" />
    <glyph glyph-name="quotedblright" unicode="&#x201d;" horiz-adv-x="355" 
d="M269 525l65 183h35q-4 -8 -33.5 -78t-45.5 -105h-21zM157 525l65 183h35q-4 -8 -33.5 -78t-45.5 -105h-21z" />
    <glyph glyph-name="quotedblbase" unicode="&#x201e;" horiz-adv-x="366" 
d="M166 -121l74 155h41l-92 -155h-23zM40 -121l74 155h37l-88 -155h-23z" />
    <glyph glyph-name="dagger" unicode="&#x2020;" horiz-adv-x="507" 
d="M222 -114l85 600h-191l3 21h191l28 202h22l-28 -202h194l-3 -21h-194l-85 -600h-22z" />
    <glyph glyph-name="daggerdbl" unicode="&#x2021;" horiz-adv-x="502" 
d="M224 -109l28 196h-192l3 20h192l54 389h-192l3 22h192l27 191h22l-27 -191h192l-3 -22h-192l-54 -389h192l-3 -20h-192l-28 -196h-22z" />
    <glyph glyph-name="bullet" unicode="&#x2022;" horiz-adv-x="361" 
d="M128 354q5 37 35.5 64t68.5 27q37 0 60 -26.5t18 -64.5q-5 -37 -35.5 -64t-68.5 -27q-37 0 -60 26.5t-18 64.5z" />
    <glyph glyph-name="ellipsis" unicode="&#x2026;" horiz-adv-x="671" 
d="M106 29q1 13 11.5 22t23.5 9t21 -9t6 -22t-12.5 -22t-23.5 -9t-20.5 9t-5.5 22zM300 30q1 13 11.5 22t23.5 9t21 -9t6 -22t-12.5 -22t-23.5 -9t-20.5 9t-5.5 22zM499 32q1 13 11.5 22t23.5 9t21 -9t6 -22q-1 -13 -11.5 -22t-23.5 -9t-21 9t-6 22z" />
    <glyph glyph-name="perthousand" unicode="&#x2030;" horiz-adv-x="996" 
d="M378 525q-11 -83 -56.5 -131.5t-106.5 -48.5q-66 0 -95.5 47t-16.5 135q12 85 56.5 132t106.5 47q65 0 94.5 -47.5t17.5 -133.5zM679 743l18 -12l-600 -779q-5 2 -11.5 7t-7.5 6zM350 525q22 155 -89 155q-108 0 -129 -153q-12 -82 9 -118.5t78 -36.5q109 0 131 153z
M671 173q-12 -83 -57 -131.5t-106 -48.5q-66 0 -95.5 47t-17.5 135q12 87 56.5 133t106.5 46q65 0 95 -47.5t18 -133.5zM643 172q22 155 -91 155q-110 0 -131 -152q-11 -82 10.5 -118.5t78.5 -36.5q111 0 133 152zM986 173q-12 -83 -57 -131.5t-106 -48.5q-66 0 -95.5 47
t-17.5 135q12 87 56.5 133t106.5 46q65 0 95 -47.5t18 -133.5zM958 172q22 155 -91 155q-110 0 -131 -152q-11 -82 10.5 -118.5t78.5 -36.5q111 0 133 152z" />
    <glyph glyph-name="guilsinglleft" unicode="&#x2039;" horiz-adv-x="263" 
d="M194 116l-97 179l147 181q1 0 9 -4.5t10 -6.5q1 -1 -138 -170q14 -26 45.5 -84t45.5 -84z" />
    <glyph glyph-name="guilsinglright" unicode="&#x203a;" horiz-adv-x="272" 
d="M159 474l97 -179l-147 -181l-8 4q-8 5 -10 7q-1 1 138 170q-79 144 -91 168z" />
    <glyph glyph-name="fraction" unicode="&#x2044;" horiz-adv-x="191" 
d="M-134 -2l538 720l20 -10l-540 -719z" />
    <glyph glyph-name="Euro" unicode="&#x20ac;" horiz-adv-x="576" 
d="M151 408l15 106q13 94 89 147.5t168 53.5q63 0 114.5 -27t74.5 -77l-22 -12q-20 44 -67.5 68.5t-102.5 24.5q-84 0 -151 -46.5t-79 -131.5l-15 -106h271l-8 -22h-266l-12 -82h274l-8 -21h-269l-12 -90q-12 -83 41.5 -130t135.5 -47q124 0 201 93l17 -12q-37 -50 -97 -77
t-124 -27q-91 0 -151 53t-47 147l12 90h-61l7 21h57l12 82h-57l8 22h52z" />
    <glyph glyph-name="afii61289" unicode="&#x2113;" horiz-adv-x="380" 
d="M334 53l11 -16q-53 -42 -108 -42q-70 0 -96 45.5t-15 132.5l8 61l-74 -65l-3 19l81 72l40 282q16 117 58.5 168t93.5 51q47 0 66.5 -36.5t10.5 -103.5q-25 -170 -249 -371l-10 -70q-13 -92 13 -128t82 -36q41 0 91 37zM201 544l-39 -269q100 101 155.5 182.5t66.5 161.5
q8 56 -3.5 87.5t-56.5 31.5q-40 0 -74.5 -45.5t-48.5 -148.5z" />
    <glyph glyph-name="trademark" unicode="&#x2122;" horiz-adv-x="822" 
d="M603 398l-96 296h-4q-6 -44 -23.5 -167.5t-24.5 -174.5h-17l50 356h32l97 -299q60 100 100.5 167t57.5 94.5t23 37.5h32l-50 -356h-18l49 345h-3l-181 -299h-24zM404 693h-130l-48 -341h-18l48 341h-130l2 15h278z" />
    <glyph glyph-name="Omega" unicode="&#x2126;" horiz-adv-x="752" 
d="M255 37l-32 30q-58 53 -87 132.5t-15 178.5q20 144 125.5 235.5t241.5 91.5t209.5 -94.5t54.5 -228.5q-14 -103 -76.5 -194.5t-148.5 -150.5h190l-3 -22h-241l1 12q94 52 166 150.5t87 204.5q10 73 -13 140.5t-83.5 113.5t-146.5 46q-127 0 -223 -87t-115 -218
q-29 -211 156 -349l-1 -12h-243l3 21h194z" />
    <glyph glyph-name="estimated" unicode="&#x212e;" horiz-adv-x="883" 
d="M847 344h-658q-5 0 -5 -5v-199q0 -12 8 -23q105 -108 249 -108q77 0 145 32.5t117 88.5h59q-56 -65 -141 -103t-181 -38q-168 0 -287 107t-119 258t119 258.5t287 107.5q169 0 288 -107t119 -259v-10zM698 370v200q0 14 -10 24q-106 104 -247 104q-143 0 -248 -107
q-9 -11 -9 -25v-196q0 -7 5 -7h505q4 0 4 7z" />
    <glyph glyph-name="partialdiff" unicode="&#x2202;" horiz-adv-x="479" 
d="M189 679l-6 20q64 39 138 39q99 0 146 -91t27 -235q-10 -74 -27 -131q-39 -131 -104.5 -207.5t-153.5 -76.5q-76 0 -111.5 61t-23.5 145q14 102 80 168t141 66q58 0 102 -34t54 -82q13 38 22 99q10 78 -2 143t-52.5 107.5t-105.5 42.5q-67 0 -124 -34zM214 22h1
q75 0 142 79t84 187q-8 44 -50 84t-99 40q-67 0 -124 -60.5t-70 -146.5q-11 -81 21.5 -132t94.5 -51z" />
    <glyph glyph-name="Delta" unicode="&#x2206;" horiz-adv-x="570" 
d="M35 0l3 24q56 113 166 342t165 342h42l137 -683l-3 -25h-510zM390 688h-6l-320 -666h455z" />
    <glyph glyph-name="product" unicode="&#x220f;" horiz-adv-x="621" 
d="M674 686h-102l-104 -739h-23l104 739h-315l-104 -739h-24l104 739h-102l3 22h566z" />
    <glyph glyph-name="summation" unicode="&#x2211;" horiz-adv-x="493" 
d="M455 -74h-443l3 22l322 359q-34 60 -103 189t-103 189l3 23h415l-3 -22h-385q65 -119 206 -375l-324 -364h415z" />
    <glyph glyph-name="minus" unicode="&#x2212;" horiz-adv-x="589" 
d="M97 296l3 22h476l-3 -22h-476z" />
    <glyph glyph-name="uni2215" unicode="&#x2215;" horiz-adv-x="168" 
d="M-145 -11l540 729l18 -10l-540 -728z" />
    <glyph glyph-name="uni2219" unicode="&#x2219;" horiz-adv-x="259" 
d="M139 318q2 13 12.5 22t23.5 9t20.5 -9t5.5 -22q-1 -13 -11.5 -22t-23.5 -9t-21 9t-6 22z" />
    <glyph glyph-name="radical" unicode="&#x221a;" horiz-adv-x="533" 
d="M629 820l-337 -957h-27l-84 469l-75 -26q-1 5 -3.5 10.5t-3.5 8.5l101 35l81 -457l5 1l319 916h24z" />
    <glyph glyph-name="infinity" unicode="&#x221e;" horiz-adv-x="733" 
d="M718 293v-1q-9 -60 -54.5 -98.5t-99.5 -38.5q-37 0 -72.5 28t-83.5 90q-40 -38 -64.5 -58.5t-61.5 -40t-69 -19.5q-53 0 -85 39.5t-25 94.5q8 59 50.5 98.5t100.5 39.5q24 0 45.5 -9t43 -29.5t35 -35.5t36.5 -44l23 23v-1q33 31 54 48t54 33t65 16q56 -1 86 -38.5
t22 -96.5zM221 175h1q56 0 153 90l25 22q-25 35 -42.5 56t-48.5 42.5t-62 21.5q-48 0 -82.5 -35t-41.5 -84q-6 -48 21 -80.5t77 -32.5zM602 407h-1q-58 0 -149 -86l-32 -29q53 -66 82.5 -91.5t67.5 -25.5q49 0 84 34.5t41 79.5q8 55 -18.5 86.5t-74.5 31.5z" />
    <glyph glyph-name="integral" unicode="&#x222b;" horiz-adv-x="299" 
d="M385 842l-6 -20q-25 9 -38 9q-39 0 -66 -33.5t-35 -89.5l-32 -265q-38 -323 -56 -457q-9 -61 -44.5 -93.5t-81.5 -32.5q-24 0 -40 6l6 22q24 -6 29 -6q91 0 107 105q6 46 23 183t23 186q28 243 44 358q9 63 44.5 101t77.5 38q23 0 45 -11z" />
    <glyph glyph-name="approxequal" unicode="&#x2248;" horiz-adv-x="524" 
d="M470 240l12 -10q-42 -45 -92 -45q-32 0 -94 37q-61 37 -93 37q-45 0 -81 -41l-12 10q45 53 99 53q38 0 81 -28l15 -9q59 -37 92 -37q41 0 73 33zM489 371l12 -10q-42 -45 -92 -45q-33 0 -95 37q-61 37 -93 37q-45 0 -80 -41l-13 10q46 52 98 52q40 0 82 -27l15 -9
q60 -37 92 -37q41 0 74 33z" />
    <glyph glyph-name="notequal" unicode="&#x2260;" horiz-adv-x="528" 
d="M427 485l-60 -100h155l-3 -19h-161l-95 -160h233l-2 -19h-241l-65 -107l-14 7l60 100h-147l2 19h155l95 160h-227l3 19h235l62 106z" />
    <glyph glyph-name="lessequal" unicode="&#x2264;" horiz-adv-x="462" 
d="M404 74h-345l3 20h345zM459 561l-3 -24l-329 -170l282 -167l-4 -23q-54 33 -152 92t-141 85l4 26z" />
    <glyph glyph-name="greaterequal" unicode="&#x2265;" horiz-adv-x="471" 
d="M421 75h-345l3 19h345zM154 537l3 24q50 -31 147 -90t147 -91l-4 -26l-344 -177l4 23l328 167q-208 126 -281 170z" />
    <glyph glyph-name="lozenge" unicode="&#x25ca;" horiz-adv-x="538" 
d="M545 356l-261 -371h-39l-62 153l-89 217l98 141q31 44 88.5 125.5t73.5 104.5h38q29 -71 83 -201t70 -169zM515 355l-146 363l-245 -361l142 -361z" />
    </font>
</defs>
</svg>
